<svg width="102" height="111" viewBox="-2 -11 102 111" fill="none" xmlns="http://www.w3.org/2000/svg">
<path d="M51.0034 6.12735C52.6593 6.12206 54.2836 6.5805 55.6924 7.45077C57.1011 8.32104 58.2381 9.56837 58.9745 11.0515L84.041 61.1844C84.7209 62.5433 85.0422 64.0535 84.9742 65.5714C84.9063 67.0894 84.4513 68.5648 83.6526 69.8575C82.8539 71.1502 81.738 72.2171 80.4108 72.9571C79.0837 73.6971 77.5893 74.0854 76.0698 74.0853H25.9369C24.4174 74.0854 22.9231 73.6971 21.596 72.9571C20.2688 72.2171 19.1529 71.1502 18.3541 69.8575C17.5554 68.5648 17.1005 67.0894 17.0325 65.5714C16.9646 64.0535 17.2858 62.5433 17.9658 61.1844L43.0323 11.0515C43.7687 9.56837 44.9056 8.32104 46.3144 7.45077C47.7232 6.5805 49.3475 6.12206 51.0034 6.12735ZM51.0034 9.80773e-08C48.2106 -0.000318793 45.4728 0.777006 43.0969 2.24489C40.7209 3.71277 38.8006 5.81322 37.5511 8.31092L12.4846 58.4438C11.3374 60.7369 10.7955 63.2853 10.9105 65.8468C11.0254 68.4083 11.7932 70.8978 13.1411 73.079C14.489 75.2602 16.3722 77.0606 18.6117 78.3092C20.8513 79.5577 23.3729 80.2129 25.9369 80.2126H76.0698C78.6339 80.2129 81.1555 79.5577 83.395 78.3092C85.6346 77.0606 87.5177 75.2602 88.8656 73.079C90.2135 70.8978 90.9814 68.4083 91.0963 65.8468C91.2112 63.2853 90.6693 60.7369 89.5222 58.4438L64.4557 8.31092C63.2062 5.81322 61.2859 3.71277 58.9099 2.24489C56.5339 0.777006 53.7962 -0.000318793 51.0034 9.80773e-08Z" fill="#70D44B"/>
</svg>