<svg width="65" height="64" viewBox="0 0 65 64" fill="none" xmlns="http://www.w3.org/2000/svg">
<path d="M36.7104 39.3684C43.1053 39.3684 48.2893 34.1844 48.2893 27.7895C48.2893 21.3945 43.1053 16.2105 36.7104 16.2105C30.3154 16.2105 25.1314 21.3945 25.1314 27.7895C25.1314 34.1844 30.3154 39.3684 36.7104 39.3684ZM36.7104 43.579C27.9904 43.579 20.9209 36.5095 20.9209 27.7895C20.9209 19.0695 27.9904 12 36.7104 12C45.4304 12 52.4999 19.0695 52.4999 27.7895C52.4999 36.5095 45.4304 43.579 36.7104 43.579Z" fill="#35D07F"/>
<path d="M28.2895 47.7896C34.6844 47.7896 39.8684 42.6056 39.8684 36.2106C39.8684 29.8157 34.6844 24.6317 28.2895 24.6317C21.8945 24.6317 16.7105 29.8157 16.7105 36.2106C16.7105 42.6056 21.8945 47.7896 28.2895 47.7896ZM28.2895 52.0001C19.5695 52.0001 12.5 44.9306 12.5 36.2106C12.5 27.4906 19.5695 20.4211 28.2895 20.4211C37.0095 20.4211 44.079 27.4906 44.079 36.2106C44.079 44.9306 37.0095 52.0001 28.2895 52.0001Z" fill="#FBCC5C"/>
<path d="M37.2321 43.5791C38.3269 42.2523 39.1116 40.6979 39.5289 39.0292C41.1976 38.612 42.7521 37.8274 44.0788 36.7327C44.0183 38.6653 43.6021 40.5701 42.851 42.3517C41.0694 43.1026 39.1646 43.5187 37.2321 43.5791ZM25.4708 24.971C23.8021 25.3882 22.2477 26.1728 20.9209 27.2675C20.9814 25.3349 21.3976 23.4301 22.1487 21.6485C23.9303 20.8976 25.8351 20.4815 27.7676 20.4211C26.6729 21.7479 25.8881 23.3023 25.4708 24.971Z" fill="#ECFF8F"/>
</svg>
