<svg xmlns="http://www.w3.org/2000/svg" xmlns:xlink="http://www.w3.org/1999/xlink" viewBox="-3 -3 50 44" style="enable-background:new -3 -3 44 44" xml:space="preserve">
  <defs>
    <path id="a" d="M0 0h146v38.3H0z"/>
  </defs>
  <clipPath id="b">
    <use xlink:href="#a" style="overflow:visible"/>
  </clipPath>
  <g style="clip-path:url(#b)">
    <path d="M28.7 19.1c5.3 0 9.6-4.3 9.6-9.6C38.3 4.3 34 0 28.7 0s-9.5 4.3-9.6 9.5c0-5.2-4.3-9.5-9.6-9.5C4.3 0 0 4.3 0 9.6s4.3 9.5 9.5 9.6c-5.3 0-9.5 4.3-9.5 9.6s4.3 9.6 9.6 9.6 9.6-4.3 9.6-9.6-4.3-9.5-9.5-9.6c5.2 0 9.5-4.3 9.5-9.5 0 5.2 4.2 9.4 9.5 9.4z" style="fill-rule:evenodd;clip-rule:evenodd;fill:#06e594"/>
    <path d="M28.7 38.3c5.3 0 9.6-4.3 9.6-9.6s-4.3-9.6-9.6-9.6-9.6 4.3-9.6 9.6 4.3 9.6 9.6 9.6z" style="fill:#06e594"/>
  </g>
</svg>
