<svg width="512" height="512" viewBox="0 0 512 512" fill="none" xmlns="http://www.w3.org/2000/svg">
<g clip-path="url(#clip0)">
<path fill-rule="evenodd" clip-rule="evenodd" d="M180.595 32.3252C185.885 24.6109 194.638 20 203.992 20H388.385C398.35 20 407.584 25.2282 412.711 33.7729L512 199.255L463.349 228.445L372.324 76.7366H218.936L124.451 214.527L218.553 364.235L170.518 394.428L66.5008 228.947C60.4818 219.371 60.726 207.135 67.1223 197.807L180.595 32.3252Z" fill="#9C6CFF"/>
<path fill-rule="evenodd" clip-rule="evenodd" d="M331.405 480.48C326.115 488.194 317.362 492.805 308.008 492.805L123.615 492.805C113.65 492.805 104.416 487.577 99.2889 479.032L-9.24236e-05 313.55L48.6511 284.359L139.676 436.068L293.064 436.068L387.549 298.278L293.447 148.57L341.482 118.376L445.499 283.858C451.518 293.434 451.274 305.67 444.878 314.998L331.405 480.48Z" fill="#05D2DD"/>
</g>
<defs>
<clipPath id="clip0">
<rect width="512" height="512" fill="white"/>
</clipPath>
</defs>
</svg>
