<?xml version="1.0" standalone="no"?>
<!DOCTYPE svg PUBLIC "-//W3C//DTD SVG 20010904//EN"
 "http://www.w3.org/TR/2001/REC-SVG-20010904/DTD/svg10.dtd">
<svg version="1.0" xmlns="http://www.w3.org/2000/svg"
 width="210.000000pt" height="210.000000pt" viewBox="0 0 210.000000 210.000000"
 preserveAspectRatio="xMidYMid meet">
<metadata>
Created by potrace 1.16, written by Peter Selinger 2001-2019
</metadata>
<g transform="translate(0.000000,210.000000) scale(0.100000,-0.100000)"
fill="#e6007a" stroke="none">
<path d="M898 2025 c-135 -37 -208 -106 -208 -196 0 -79 73 -151 190 -187 78
-24 265 -24 340 1 213 70 255 246 80 341 -29 16 -75 35 -104 42 -64 17 -235
17 -298 -1z"/>
<path d="M384 1745 c-147 -74 -266 -272 -267 -445 -1 -117 43 -179 132 -188
208 -20 455 370 362 573 -28 60 -53 78 -119 83 -46 3 -67 -1 -108 -23z"/>
<path d="M1555 1760 c-55 -22 -85 -84 -85 -173 1 -84 14 -138 56 -224 76 -153
215 -261 324 -251 89 9 130 68 130 187 0 218 -194 473 -359 470 -26 0 -55 -4
-66 -9z"/>
<path d="M194 974 c-104 -51 -103 -261 1 -435 42 -69 140 -163 197 -189 178
-81 289 78 213 306 -77 230 -277 384 -411 318z"/>
<path d="M1733 960 c-146 -73 -262 -268 -263 -438 0 -81 15 -125 55 -162 37
-35 130 -35 197 -1 96 49 199 184 238 310 23 74 26 187 6 234 -38 89 -127 111
-233 57z"/>
<path d="M920 470 c-76 -16 -168 -68 -201 -112 -37 -53 -40 -119 -6 -169 24
-36 109 -92 167 -110 54 -17 229 -23 293 -9 79 16 172 65 205 108 37 48 39
133 4 177 -32 41 -96 82 -156 101 -60 19 -242 27 -306 14z"/>
</g>
</svg>
