<?xml version="1.0" encoding="UTF-8"?> <svg xmlns="http://www.w3.org/2000/svg" width="64" height="64" viewBox="0 0 64 64" fill="none"><circle cx="32" cy="32" r="32" fill="#1969EE"></circle><path d="M29.914 8.4598C31.0844 7.84673 32.8654 7.84673 34.0359 8.4598L45.9796 14.7156C46.6845 15.0848 47.0716 15.635 47.141 16.203H47.1524V47.6479C47.1369 48.2674 46.7461 48.8828 45.9796 49.2844L34.0359 55.5402C32.8654 56.1533 31.0844 56.1533 29.914 55.5402L17.9703 49.2844C17.207 48.8847 16.8407 48.2648 16.8226 47.6479C16.8208 47.5872 16.8205 47.5365 16.8223 47.4945L16.8222 16.405C16.821 16.3709 16.8209 16.3369 16.8219 16.303L16.8226 16.203L16.8279 16.203C16.881 15.6288 17.2505 15.0926 17.9703 14.7156L29.914 8.4598ZM45.2722 33.7459L34.0359 39.6313C32.8654 40.2443 31.0844 40.2443 29.914 39.6313L18.7023 33.7591V47.5857L29.914 53.427C30.547 53.7627 31.2041 54.0897 31.8466 54.1313L31.9749 54.1354C32.6445 54.1377 33.2944 53.8005 33.9536 53.4814L45.2722 47.5354V33.7459ZM14.8799 46.9643C14.8799 48.1688 15.0211 48.9608 15.3015 49.5188C15.5339 49.9812 15.8825 50.3344 16.5191 50.7645L16.5554 50.7889C16.6952 50.8823 16.8491 50.9802 17.0364 51.0949L17.2573 51.2292L17.9357 51.6353L16.9627 53.2305L16.2034 52.7757L16.0758 52.698C15.8562 52.5634 15.6743 52.4483 15.5045 52.3347C13.6902 51.1215 13.0136 49.7993 13.0002 47.0479L13 46.9643H14.8799ZM31.0347 25.3178C30.9477 25.3474 30.8662 25.3816 30.7919 25.4206L18.8483 31.6764C18.8358 31.6829 18.8238 31.6894 18.8125 31.6958L18.8023 31.7017L18.8211 31.7123L18.8483 31.727L30.7919 37.9828C30.8662 38.0217 30.9477 38.0559 31.0347 38.0856V25.3178ZM32.9152 25.3178V38.0856C33.0021 38.0559 33.0836 38.0217 33.1579 37.9828L45.1016 31.727C45.1141 31.7204 45.1261 31.7139 45.1374 31.7075L45.1475 31.7017L45.1288 31.691L45.1016 31.6764L33.1579 25.4206C33.0836 25.3816 33.0021 25.3474 32.9152 25.3178ZM45.2722 18.4336L34.558 24.0455L45.2722 29.6573V18.4336ZM18.7023 18.4467V29.6442L29.3915 24.0455L18.7023 18.4467ZM33.1579 10.1083C32.5368 9.78298 31.4131 9.78298 30.7919 10.1083L18.8483 16.3641C18.8358 16.3707 18.8238 16.3772 18.8125 16.3836L18.8023 16.3894L18.8211 16.4001L18.8483 16.4147L30.7919 22.6705C31.4131 22.9958 32.5368 22.9958 33.1579 22.6705L45.1016 16.4147C45.1141 16.4082 45.1261 16.4017 45.1374 16.3952L45.1475 16.3894L45.1288 16.3788L45.1016 16.3641L33.1579 10.1083ZM47.0373 10.7943L47.7966 11.2491L47.9242 11.3268C48.1438 11.4612 48.3257 11.5766 48.4955 11.6901C50.3098 12.9031 50.9865 14.2256 50.9996 16.9768L51 17.0606H49.1201C49.1201 15.8558 48.9789 15.0639 48.6985 14.506C48.4662 14.0437 48.1175 13.6903 47.4809 13.2603L47.4446 13.2359C47.3049 13.1425 47.1509 13.0447 46.9636 12.9297L46.7427 12.7955L46.0643 12.3895L47.0373 10.7943Z" fill="white"></path></svg> 