<svg width="28" height="28" viewBox="0 0 28 28" fill="none" xmlns="http://www.w3.org/2000/svg">
<path d="M28 14C28 6.26801 21.732 0 14 0C6.26801 0 0 6.26801 0 14C0 21.732 6.26801 28 14 28C21.732 28 28 21.732 28 14Z" fill="#04795B"/>
<path d="M10.1963 15.2681C10.7476 15.2681 11.2566 15.0843 11.6666 14.7664L8.30168 11.4026C7.98355 11.8054 7.79978 12.3142 7.79978 12.8725C7.79269 14.1939 8.86723 15.2681 10.1963 15.2681Z" fill="#EFEFEF"/>
<path d="M20.2062 12.8654C20.2062 12.3142 20.0224 11.8054 19.7043 11.3955L16.3394 14.7593C16.7423 15.0772 17.2513 15.261 17.8097 15.261C19.1317 15.2681 20.2062 14.1939 20.2062 12.8654Z" fill="#EFEFEF"/>
<path d="M21.9028 9.212L20.4112 10.703C20.9061 11.2966 21.2029 12.0457 21.2029 12.8796C21.2029 14.7522 19.6831 16.2715 17.8097 16.2715C16.9826 16.2715 16.2262 15.9747 15.6324 15.4801L13.9994 17.1125L12.3664 15.4801C11.7726 15.9747 11.0233 16.2715 10.1891 16.2715C8.31576 16.2715 6.79592 14.7522 6.79592 12.8796C6.79592 12.0528 7.09281 11.2966 7.58767 10.703L6.82415 9.93986L6.09606 9.212C5.24775 10.6112 4.75999 12.2436 4.75999 13.9961C4.75999 19.0982 8.89545 23.2251 13.9923 23.2251C19.0893 23.2251 23.2247 19.0911 23.2247 13.9961C23.2389 12.2365 22.7511 10.6041 21.9028 9.212Z" fill="#EFEFEF"/>
<path d="M20.6798 7.62198C19.0044 5.86241 16.6292 4.76 13.9994 4.76C11.3697 4.76 9.00149 5.86241 7.31902 7.62198C7.09282 7.86227 6.87368 8.11665 6.66867 8.37812L13.9923 15.6991L21.3161 8.37107C21.1323 8.11665 20.9131 7.85517 20.6798 7.62198ZM13.9994 5.96134C16.1626 5.96134 18.1703 6.79518 19.676 8.31451L13.9994 13.989L8.32286 8.31451C9.83566 6.79518 11.8363 5.96134 13.9994 5.96134Z" fill="#EFEFEF"/>
</svg>
