<svg width="18pt" height="18pt" viewBox="0 0 700 550" fill="#ffff" xmlns="http://www.w3.org/2000/svg">
  <path d="M381.92 346.64c19.039 0 34.16-15.121 34.16-34.16l-.004-65.52c0-19.039-15.12-34.16-34.16-34.16h-66.078c-19.039 0-34.16 15.121-34.16 34.16v66.078c0 19.039 15.121 34.16 34.16 34.16h66.082zm-168-134.4h-66.082c-19.039 0-34.16 15.121-34.16 34.16v66.078c0 19.039 15.121 34.16 34.16 34.16h66.078c19.039 0 34.16-15.121 34.16-34.16v-65.516c0-19.039-15.117-34.723-34.156-34.723zm336 0h-66.082c-19.039 0-34.16 15.121-34.16 34.16v66.078c0 19.039 15.121 34.16 34.16 34.16h66.078c19.039 0 34.16-15.121 34.16-34.16v-65.516c0-19.039-15.117-34.723-34.156-34.723z"/>
</svg>
