<?xml version="1.0" encoding="UTF-8"?>
<svg xmlns="http://www.w3.org/2000/svg" xmlns:xlink="http://www.w3.org/1999/xlink" viewBox="0 0 24 24" width="24px" height="24px">
<g id="surface17342590">
<path style=" stroke:none;fill-rule:nonzero;fill:rgb(100%,100%,100%);fill-opacity:1;" d="M 11 0 L 11 3 L 13 3 L 13 0 Z M 4.222656 2.808594 L 2.808594 4.222656 L 4.929688 6.34375 L 6.34375 4.929688 Z M 19.777344 2.808594 L 17.65625 4.929688 L 19.070312 6.34375 L 21.191406 4.222656 Z M 12 5 C 8.144531 5 5 8.144531 5 12 C 5 15.855469 8.144531 19 12 19 C 15.855469 19 19 15.855469 19 12 C 19 8.144531 15.855469 5 12 5 Z M 12 7 C 14.773438 7 17 9.226562 17 12 C 17 14.773438 14.773438 17 12 17 C 9.226562 17 7 14.773438 7 12 C 7 9.226562 9.226562 7 12 7 Z M 0 11 L 0 13 L 3 13 L 3 11 Z M 21 11 L 21 13 L 24 13 L 24 11 Z M 4.929688 17.65625 L 2.808594 19.777344 L 4.222656 21.191406 L 6.34375 19.070312 Z M 19.070312 17.65625 L 17.65625 19.070312 L 19.777344 21.191406 L 21.191406 19.777344 Z M 11 21 L 11 24 L 13 24 L 13 21 Z M 11 21 "/>
</g>
</svg>
