<?xml version="1.0" standalone="no"?>
<!DOCTYPE svg PUBLIC "-//W3C//DTD SVG 1.0//EN" "http://www.w3.org/TR/2001/REC-SVG-20010904/DTD/svg10.dtd">
<svg xmlns="http://www.w3.org/2000/svg" xmlns:xlink="http://www.w3.org/1999/xlink" shape-rendering="geometricPrecision" id="body_1" width="50" height="48" >

<g transform="matrix(0.5 0 0 0.5 0 0)">
	<g transform="matrix(0.33333334 0 0 0.33333334 -0 0.33333334)">
		<g transform="matrix(0.1 0 -0 -0.1 0 287)">
            <path d="M1265 2529C 1114 2515 993 2487 944 2453C 925 2441 907 2430 904 2430C 890 2430 804 2363 772 2328C 719 2270 671 2191 660 2145C 654 2123 645 2091 640 2074C 629 2040 627 1996 636 1963C 640 1947 650 1940 666 1940C 689 1940 689 1939 675 1900C 667 1877 665 1862 670 1865C 675 1868 684 1886 690 1905C 699 1931 707 1940 724 1940C 760 1940 848 1911 914 1877C 968 1849 984 1845 1055 1845C 1099 1845 1167 1853 1205 1863C 1298 1886 1380 1898 1465 1901C 1504 1903 1538 1909 1542 1914C 1550 1927 1564 1915 1556 1902C 1540 1876 1331 1831 1222 1830C 1193 1830 1153 1823 1133 1815C 1113 1807 1083 1798 1066 1796C 1022 1790 1001 1781 974 1754C 962 1741 946 1730 940 1730C 935 1730 930 1726 930 1722C 930 1718 942 1714 957 1715C 972 1715 985 1710 985 1704C 985 1698 1000 1675 1018 1653C 1043 1622 1060 1611 1086 1608C 1125 1603 1124 1604 1051 1649C 980 1692 998 1700 1075 1660C 1207 1591 1228 1586 1360 1600C 1423 1607 1479 1617 1484 1621C 1497 1633 1493 1704 1476 1744C 1462 1778 1440 1790 1340 1818L1340 1818L1305 1828L1355 1829C 1383 1829 1438 1840 1478 1852L1478 1852L1551 1873L1580 1839C 1596 1820 1612 1795 1616 1783C 1623 1755 1581 1664 1563 1667C 1556 1669 1550 1664 1550 1656C 1550 1648 1540 1638 1529 1635C 1514 1630 1511 1626 1520 1620C 1531 1613 1384 1534 1325 1514C 1312 1510 1309 1506 1318 1503C 1337 1496 1516 1585 1544 1615C 1568 1640 1569 1641 1579 1622C 1589 1603 1638 1577 1656 1581C 1666 1583 1674 1581 1730 1560C 1749 1553 1784 1546 1807 1544C 1830 1543 1859 1535 1872 1526C 1898 1507 1914 1505 1904 1522C 1899 1530 1912 1531 1954 1526C 1995 1522 2020 1524 2047 1535C 2067 1544 2089 1549 2096 1546C 2112 1540 2107 1493 2089 1474C 2074 1460 1974 1437 1961 1445C 1956 1447 1886 1450 1804 1451C 1690 1453 1642 1450 1600 1437C 1502 1408 1274 1390 1163 1402C 1024 1417 943 1407 897 1369C 853 1333 852 1318 886 1269C 929 1207 961 1200 1193 1200C 1393 1200 1524 1212 1700 1246C 1764 1258 1814 1260 1900 1256C 2056 1247 2098 1240 2076 1228C 2067 1223 2062 1215 2065 1210C 2074 1195 1989 1163 1905 1151C 1802 1135 1606 1133 1245 1144C 1086 1149 957 1151 960 1148C 968 1140 1494 1125 1690 1127C 1801 1128 1890 1134 1933 1143C 2018 1161 2009 1151 1905 1109L1905 1109L1826 1078L1380 1084C 915 1091 827 1098 695 1132C 603 1156 581 1173 574 1221C 557 1357 550 1437 556 1465C 559 1484 557 1500 551 1504C 536 1514 537 1553 553 1569C 563 1580 563 1582 553 1576C 545 1571 540 1575 540 1585C 540 1594 544 1598 550 1595C 556 1591 560 1601 559 1617C 559 1642 558 1643 550 1625C 543 1609 541 1608 541 1622C 540 1631 545 1642 551 1646C 557 1649 560 1664 557 1679C 550 1713 569 1792 583 1783C 588 1780 590 1782 587 1788C 579 1800 589 1832 599 1825C 606 1821 642 1886 642 1900C 642 1903 646 1911 652 1918C 659 1926 659 1930 650 1930C 632 1930 615 1906 575 1824C 545 1763 538 1736 531 1649C 513 1450 524 1251 554 1205C 571 1180 566 1170 538 1170C 527 1170 522 1165 525 1160C 529 1154 527 1144 522 1137C 461 1061 426 761 455 563C 464 504 475 439 480 420C 486 401 490 372 490 355C 490 298 510 276 565 270L565 270L615 265L612 220C 609 189 601 167 584 150C 566 131 558 108 554 62C 548 3 548 0 568 0C 586 0 589 5 587 28C 585 43 580 62 575 69C 570 78 571 81 578 77C 584 72 586 78 583 91C 579 106 587 120 610 141C 639 168 642 175 637 211C 633 244 634 250 647 246C 655 243 718 240 787 240C 910 240 911 240 910 218C 906 175 910 160 925 160C 933 160 940 153 940 144C 940 136 944 131 949 135C 961 142 974 104 965 90C 962 85 964 80 969 80C 975 80 980 64 980 45C 980 1 958 -2 918 37C 887 67 884 66 875 27C 870 10 872 0 879 0C 885 0 890 12 890 26L890 26L890 53L911 26C 926 6 940 0 959 2C 982 5 985 10 988 47C 992 98 967 160 940 167C 924 171 920 181 920 211C 920 246 923 250 944 250C 957 250 995 243 1027 235C 1098 218 1452 209 1590 221C 1642 226 1717 237 1755 246C 1814 260 1857 262 2032 255L2032 255L2239 248L2228 221C 2223 207 2208 159 2195 115C 2183 71 2169 27 2165 17C 2161 8 2162 0 2167 0C 2176 0 2246 235 2244 257C 2243 264 2246 270 2250 270C 2266 270 2319 321 2315 333C 2313 340 2309 381 2306 425C 2301 483 2302 501 2310 490C 2318 479 2319 496 2315 550L2315 550L2308 625L2367 680C 2417 727 2425 732 2428 715C 2430 703 2442 681 2455 665C 2485 632 2486 620 2463 599C 2440 578 2406 536 2406 530C 2408 519 2384 490 2374 490C 2367 490 2360 483 2356 475C 2353 467 2345 461 2338 462C 2331 464 2324 455 2322 442C 2317 410 2334 415 2366 456C 2470 589 2495 617 2521 635C 2559 662 2558 677 2518 673C 2489 670 2481 674 2458 707C 2439 735 2433 753 2437 773C 2441 794 2435 811 2410 841C 2393 863 2359 918 2334 963C 2285 1056 2250 1088 2158 1126C 2070 1162 2061 1179 2105 1223C 2144 1262 2148 1288 2123 1331C 2114 1346 2108 1361 2111 1362C 2113 1364 2128 1372 2145 1380C 2161 1389 2176 1404 2178 1414C 2183 1440 2162 1477 2138 1483C 2120 1488 2121 1491 2146 1542C 2164 1578 2182 1600 2203 1610C 2231 1623 2238 1635 2257 1700C 2269 1741 2279 1791 2279 1810C 2280 1855 2255 1936 2241 1933C 2236 1931 2233 1936 2236 1943C 2238 1950 2229 1966 2215 1978C 2201 1990 2190 2004 2190 2008C 2190 2012 2173 2029 2151 2045C 2121 2068 2110 2085 2100 2125C 2082 2195 2066 2223 1997 2306C 1918 2401 1834 2450 1690 2485C 1632 2499 1569 2515 1550 2520C 1496 2534 1364 2538 1265 2529zM1540 2498C 1540 2494 1547 2493 1555 2496C 1563 2500 1570 2497 1570 2490C 1570 2484 1574 2481 1578 2484C 1583 2487 1606 2482 1630 2474C 1654 2466 1682 2461 1692 2463C 1701 2466 1710 2464 1712 2459C 1714 2454 1725 2448 1736 2446C 1772 2439 1860 2398 1860 2388C 1860 2383 1865 2382 1870 2385C 1876 2388 1880 2387 1880 2381C 1880 2375 1887 2373 1896 2377C 1906 2381 1913 2376 1917 2362C 1920 2350 1931 2338 1941 2335C 1951 2331 1960 2322 1960 2315C 1960 2307 1968 2296 1978 2291C 1987 2285 1991 2280 1987 2280C 1983 2280 1995 2264 2014 2244C 2034 2224 2047 2203 2044 2199C 2041 2194 2043 2190 2049 2190C 2060 2190 2075 2152 2072 2133C 2070 2127 2074 2119 2080 2115C 2085 2112 2090 2100 2090 2089C 2090 2078 2097 2058 2106 2045C 2118 2027 2119 2020 2110 2020C 2094 2020 2021 2040 1995 2051C 1907 2090 1611 2103 1455 2075C 1252 2039 1169 2007 1040 1916C 972 1868 965 1867 902 1899C 837 1932 790 1945 709 1955L709 1955L653 1961L655 2016C 656 2046 662 2076 669 2083C 675 2089 680 2101 680 2110C 680 2141 700 2197 718 2216C 728 2227 745 2249 756 2265C 766 2282 780 2299 787 2303C 795 2308 798 2315 795 2321C 791 2326 794 2330 799 2330C 805 2330 818 2337 828 2346C 875 2388 990 2450 1040 2461C 1070 2467 1103 2476 1112 2481C 1122 2486 1142 2490 1157 2490C 1173 2490 1191 2494 1198 2499C 1215 2509 1540 2509 1540 2498zM1915 2060C 2043 2022 2088 2010 2107 2010C 2121 2010 2134 1999 2144 1978C 2153 1961 2158 1944 2155 1941C 2152 1938 2118 1941 2079 1948C 1978 1965 1731 1963 1640 1944C 1599 1936 1518 1925 1460 1920C 1366 1912 1215 1884 1136 1859C 1100 1848 1003 1847 996 1858C 991 1867 1117 1953 1185 1987C 1237 2013 1330 2038 1455 2061C 1569 2082 1845 2081 1915 2060zM2204 1940C 2231 1897 2247 1853 2244 1825C 2243 1814 2240 1791 2239 1773C 2236 1743 2235 1742 2210 1754C 2196 1761 2148 1777 2102 1789C 2056 1801 2001 1818 1979 1825C 1953 1834 1940 1835 1940 1828C 1940 1822 1929 1820 1915 1822C 1901 1825 1890 1824 1890 1821C 1890 1817 1882 1814 1873 1813C 1830 1810 1770 1797 1770 1791C 1770 1788 1745 1785 1715 1786C 1686 1786 1663 1783 1666 1778C 1669 1774 1664 1770 1655 1770C 1647 1770 1635 1782 1629 1796C 1616 1833 1639 1866 1696 1891C 1769 1924 1831 1926 1892 1900C 1945 1877 2034 1850 2058 1850C 2090 1850 2056 1868 2013 1875C 1988 1879 1942 1893 1912 1906C 1820 1947 1700 1930 1637 1866L1637 1866L1604 1833L1587 1856C 1556 1897 1564 1916 1618 1926C 1682 1937 2063 1937 2123 1926C 2168 1918 2170 1919 2170 1941C 2169 1954 2163 1976 2155 1990C 2147 2004 2141 2019 2140 2025C 2140 2034 2155 2015 2204 1940zM1981 1775C 1958 1748 1950 1730 1950 1700C 1950 1655 1967 1640 2036 1620C 2072 1609 2081 1610 2116 1628C 2175 1658 2182 1670 2171 1719C 2166 1741 2165 1760 2169 1760C 2173 1760 2193 1745 2214 1728L2214 1728L2251 1695L2233 1660C 2221 1636 2205 1622 2183 1615C 2165 1610 2150 1602 2150 1598C 2150 1594 2134 1590 2115 1590C 2093 1590 2074 1583 2061 1569C 2047 1553 2029 1548 1998 1548C 1937 1548 1807 1566 1736 1584C 1702 1592 1655 1603 1630 1608L1630 1608L1585 1618L1622 1619C 1642 1619 1685 1613 1717 1604C 1786 1584 2021 1567 2034 1581C 2040 1586 1996 1590 1920 1590C 1818 1590 1789 1593 1756 1609C 1733 1620 1686 1631 1651 1634C 1616 1637 1586 1641 1584 1643C 1582 1644 1593 1670 1608 1701L1608 1701L1635 1756L1698 1758C 1760 1760 1787 1765 1885 1794C 1913 1802 1952 1809 1974 1809L1974 1809L2012 1810L1981 1775zM1428 1731C 1443 1710 1442 1709 1417 1716C 1379 1725 1336 1696 1342 1666C 1346 1648 1340 1641 1318 1632C 1294 1623 1288 1624 1280 1640C 1265 1667 1268 1696 1286 1711C 1298 1721 1300 1734 1296 1762L1296 1762L1290 1800L1352 1777C 1386 1764 1420 1743 1428 1731zM1092 1730C 1090 1697 1086 1670 1084 1670C 1073 1670 980 1726 980 1733C 980 1740 1073 1787 1090 1789C 1093 1790 1093 1763 1092 1730zM1245 1774C 1271 1757 1277 1736 1260 1725C 1247 1717 1190 1748 1190 1764C 1190 1793 1210 1797 1245 1774zM1160 1759C 1160 1753 1169 1737 1179 1723C 1202 1695 1197 1674 1168 1664C 1141 1656 1130 1674 1130 1728C 1130 1759 1134 1770 1145 1770C 1153 1770 1160 1765 1160 1759zM2053 1754C 2062 1745 2050 1720 2036 1720C 2016 1720 1997 1737 2004 1749C 2012 1761 2043 1764 2053 1754zM2140 1714C 2140 1706 2131 1700 2120 1700C 2101 1700 2093 1719 2106 1733C 2116 1742 2140 1729 2140 1714zM1415 1666C 1415 1644 1401 1637 1381 1649C 1362 1661 1375 1692 1397 1688C 1407 1686 1415 1676 1415 1666zM2050 1660C 2050 1649 2044 1640 2036 1640C 2018 1640 2007 1656 2015 1670C 2026 1688 2050 1681 2050 1660zM1239 1656C 1248 1646 1248 1640 1240 1635C 1224 1625 1200 1637 1200 1655C 1200 1674 1224 1675 1239 1656zM2140 1425C 2140 1407 2132 1405 2042 1402C 1981 1400 1913 1404 1861 1414C 1756 1434 1665 1434 1610 1415C 1515 1381 1400 1361 1280 1356C 1151 1351 1037 1328 1010 1302C 997 1289 997 1288 1015 1295C 1087 1322 1142 1332 1269 1340C 1377 1347 1440 1357 1529 1382C 1674 1421 1735 1426 1845 1405C 1893 1396 1976 1389 2028 1389C 2109 1389 2120 1387 2105 1376C 2088 1363 2087 1361 2104 1320C 2113 1297 2118 1275 2115 1271C 2111 1268 2020 1265 1912 1265C 1802 1264 1688 1259 1655 1252C 1519 1225 1338 1210 1165 1212C 959 1213 934 1219 893 1281L893 1281L866 1322L902 1355C 932 1383 947 1389 1007 1395C 1048 1399 1110 1397 1159 1389C 1205 1383 1272 1380 1309 1383C 1452 1396 1557 1411 1607 1426C 1648 1438 1704 1441 1857 1439C 2016 1437 2062 1439 2090 1452C 2128 1468 2140 1462 2140 1425zM2076 1155C 2081 1143 1919 847 1901 836C 1897 833 1861 859 1820 894C 1735 965 1630 1032 1576 1050C 1556 1056 1540 1063 1540 1065C 1540 1066 1604 1067 1683 1066C 1808 1065 1833 1068 1892 1088C 1929 1101 1976 1124 1997 1140C 2039 1172 2068 1177 2076 1155zM596 1151C 601 1146 650 1130 705 1114C 801 1088 817 1087 1080 1083C 1231 1081 1366 1076 1380 1073C 1409 1065 1420 1063 1438 1061C 1463 1059 1448 1039 1348 941C 1184 782 1187 783 1152 849C 1132 886 1034 933 885 976C 809 998 735 1029 625 1082C 587 1100 547 1138 554 1149C 563 1162 583 1163 596 1151zM2208 1054C 2229 1036 2256 1000 2270 973C 2297 920 2309 908 2328 915C 2334 917 2340 916 2340 911C 2340 907 2358 879 2380 850C 2402 821 2420 790 2420 782C 2420 765 2346 679 2317 663C 2286 646 2280 647 2280 670C 2280 681 2271 713 2260 742C 2249 771 2240 804 2240 815C 2240 838 2183 990 2169 1004C 2164 1010 2160 1021 2160 1030C 2160 1039 2144 1061 2125 1080C 2106 1099 2090 1117 2090 1121C 2090 1133 2168 1089 2208 1054zM583 1089C 606 1072 623 1053 622 1047C 610 1006 590 835 590 773C 590 646 618 610 719 610L719 610L767 610L773 723C 777 784 780 867 780 906C 780 945 783 979 786 982C 793 990 983 930 1064 894C 1112 874 1132 858 1141 839C 1147 824 1160 804 1171 794C 1194 774 1189 770 1356 933L1356 933L1457 1032L1464 989C 1468 965 1482 909 1495 865C 1509 821 1520 777 1520 768C 1520 749 1528 746 1554 756C 1568 761 1570 784 1570 901L1570 901L1570 1040L1608 1020C 1705 966 1727 951 1803 888C 1848 851 1890 820 1896 820C 1913 820 1922 833 1994 960C 2086 1121 2076 1109 2088 1080C 2093 1066 2110 1044 2124 1031C 2138 1017 2150 1002 2150 997C 2150 992 2163 962 2179 931C 2195 900 2210 859 2214 840C 2221 805 2221 805 2201 848C 2182 887 2166 900 2158 882C 2155 874 2025 836 1936 817L1936 817L1887 807L1894 737C 1898 698 1902 665 1904 663C 1910 657 2094 692 2126 705C 2143 712 2174 734 2194 754C 2228 788 2230 789 2230 768C 2230 755 2236 733 2244 719C 2282 645 2291 595 2288 455L2288 455L2285 317L2257 296C 2230 276 2212 275 1952 268C 1800 265 1641 257 1600 251C 1438 227 1093 232 1002 260C 959 273 959 273 965 314C 987 489 975 656 931 784C 919 817 910 862 910 886C 910 930 897 952 886 924C 873 890 881 839 914 748C 955 636 963 560 953 396L953 396L945 277L895 262C 834 244 682 251 630 273C 611 281 591 287 586 287C 566 283 533 446 523 600C 518 686 533 961 545 993C 550 1004 547 1010 538 1010C 517 1010 502 912 494 724C 488 602 490 558 503 499C 512 458 524 405 529 380C 534 355 542 325 545 313C 550 298 548 290 541 290C 535 290 528 296 526 302C 474 498 458 698 479 900C 489 995 521 1120 536 1120C 538 1120 559 1106 583 1089zM2261 1043C 2293 1009 2334 930 2320 930C 2315 930 2299 952 2285 979C 2261 1028 2232 1062 2194 1088C 2183 1095 2188 1094 2205 1086C 2222 1078 2247 1059 2261 1043zM715 1024L773 997L767 846C 763 763 758 679 754 659L754 659L748 623L696 628C 634 633 614 652 604 718C 597 762 622 1019 636 1041C 644 1054 652 1053 715 1024zM1553 917C 1552 781 1542 728 1530 790C 1526 809 1520 835 1516 847C 1510 865 1512 868 1532 864L1532 864L1555 859L1532 872C 1520 880 1513 889 1516 893C 1528 904 1542 901 1534 888C 1530 881 1531 880 1538 884C 1560 897 1550 911 1523 908C 1497 905 1494 909 1484 955C 1462 1046 1464 1052 1513 1048L1513 1048L1555 1045L1553 917zM2176 762C 2159 743 2135 724 2123 719C 2098 710 1919 677 1915 682C 1914 684 1909 710 1906 741L1906 741L1899 796L1962 808C 1997 815 2059 830 2100 843L2100 843L2175 867L2191 831C 2208 795 2208 795 2176 762z" stroke="none" fill="#FFFFFF" fill-rule="nonzero" />
            <path d="M1443 2367C 1425 2360 1406 2350 1399 2343C 1391 2335 1380 2337 1354 2352C 1306 2380 1269 2369 1222 2314C 1202 2289 1185 2266 1184 2262C 1181 2218 1164 2166 1148 2144L1148 2144L1127 2118L1148 2097C 1166 2080 1174 2078 1196 2085C 1219 2094 1225 2104 1236 2159C 1243 2194 1256 2230 1264 2239C 1278 2254 1280 2259 1280 2279C 1280 2285 1289 2288 1300 2287C 1314 2286 1326 2270 1342 2233C 1371 2161 1400 2152 1422 2208C 1428 2223 1433 2242 1434 2250C 1435 2258 1441 2275 1448 2288C 1458 2305 1465 2309 1474 2301C 1481 2295 1490 2293 1493 2296C 1496 2300 1501 2292 1504 2279C 1532 2131 1541 2117 1594 2141C 1623 2154 1628 2177 1606 2194C 1598 2200 1589 2219 1587 2235C 1579 2287 1549 2348 1525 2364C 1497 2382 1487 2383 1443 2367zM1537 2322C 1549 2304 1562 2264 1565 2234C 1571 2189 1576 2180 1592 2180C 1625 2180 1606 2155 1570 2152C 1541 2149 1538 2151 1543 2169C 1546 2181 1544 2203 1539 2218C 1534 2233 1528 2262 1525 2283C 1519 2318 1518 2320 1480 2320C 1436 2320 1425 2307 1406 2231C 1393 2178 1379 2172 1370 2215C 1361 2256 1332 2310 1314 2317C 1306 2320 1293 2317 1285 2310C 1255 2285 1202 2148 1209 2113C 1210 2105 1199 2100 1180 2100C 1160 2100 1150 2105 1150 2115C 1150 2123 1156 2130 1164 2130C 1172 2130 1182 2152 1190 2190C 1209 2278 1249 2337 1296 2346C 1329 2352 1336 2350 1357 2326C 1370 2311 1380 2291 1380 2282C 1381 2273 1387 2279 1395 2297C 1410 2333 1454 2361 1490 2357C 1505 2356 1523 2342 1537 2322z" stroke="none" fill="#FFFFFF" fill-rule="nonzero" />
            <path d="M1096 743C 1093 739 1091 721 1091 701L1091 701L1093 665L1099 700C 1105 734 1106 735 1153 736C 1195 738 1201 735 1206 714C 1209 701 1219 685 1227 679C 1239 668 1239 671 1229 696C 1222 712 1212 730 1208 737C 1199 748 1107 754 1096 743z" stroke="none" fill="#FFFFFF" fill-rule="nonzero" />
            <path d="M1120 708C 1120 681 1133 650 1141 656C 1157 665 1151 720 1135 720C 1127 720 1120 714 1120 708z" stroke="none" fill="#FFFFFF" fill-rule="nonzero" />
            <path d="M1170 690C 1170 668 1174 662 1186 667C 1194 670 1199 679 1196 687C 1193 695 1190 706 1190 711C 1190 716 1186 720 1180 720C 1175 720 1170 707 1170 690z" stroke="none" fill="#FFFFFF" fill-rule="nonzero" />
            <path d="M1346 643C 1322 630 1187 613 1088 611C 1049 609 1077 462 1124 414C 1159 379 1198 372 1273 386C 1375 406 1384 418 1388 534C 1393 650 1387 664 1346 643zM1370 542C 1370 433 1358 417 1258 399C 1199 388 1188 389 1166 404C 1127 429 1092 492 1084 548L1084 548L1078 597L1202 605C 1271 609 1333 616 1341 621C 1367 637 1370 630 1370 542z" stroke="none" fill="#FFFFFF" fill-rule="nonzero" />
            <path d="M1204 569C 1196 555 1222 538 1234 550C 1243 559 1234 580 1220 580C 1215 580 1208 575 1204 569z" stroke="none" fill="#FFFFFF" fill-rule="nonzero" />
            <path d="M1503 999C 1486 982 1499 960 1526 960C 1545 960 1550 965 1550 985C 1550 1012 1524 1020 1503 999z" stroke="none" fill="#FFFFFF" fill-rule="nonzero" />
            <path d="M2066 795C 2063 785 2065 771 2072 763C 2081 752 2081 746 2069 738C 2057 730 2057 729 2070 733C 2088 737 2095 773 2082 796C 2074 811 2072 811 2066 795z" stroke="none" fill="#FFFFFF" fill-rule="nonzero" />
            <path d="M2027 774C 2023 770 2020 760 2020 751C 2020 740 2023 739 2031 747C 2037 753 2041 763 2038 770C 2036 776 2031 778 2027 774z" stroke="none" fill="#FFFFFF" fill-rule="nonzero" />
            <path d="M2003 724C 2003 718 2012 715 2022 718C 2049 725 2051 735 2026 735C 2013 735 2003 730 2003 724z" stroke="none" fill="#FFFFFF" fill-rule="nonzero" />
            <path d="M1333 1563C 1348 1561 1370 1561 1383 1563C 1395 1565 1383 1567 1355 1567C 1328 1567 1317 1565 1333 1563z" stroke="none" fill="#FFFFFF" fill-rule="nonzero" />
            <path d="M1731 1234C 1695 1226 1664 1218 1662 1215C 1650 1203 1669 1203 1715 1216C 1743 1223 1793 1229 1828 1230C 1868 1230 1889 1234 1885 1240C 1877 1254 1808 1251 1731 1234z" stroke="none" fill="#FFFFFF" fill-rule="nonzero" />
            <path d="M840 1210C 851 1189 880 1182 880 1200C 880 1206 873 1210 865 1210C 857 1210 850 1215 850 1220C 850 1226 845 1230 840 1230C 833 1230 833 1224 840 1210z" stroke="none" fill="#FFFFFF" fill-rule="nonzero" />
            <path d="M1725 1189C 1716 1175 1729 1162 1738 1176C 1742 1182 1752 1190 1760 1193C 1770 1197 1768 1199 1753 1199C 1741 1200 1728 1195 1725 1189z" stroke="none" fill="#FFFFFF" fill-rule="nonzero" />
            <path d="M2637 878C 2606 849 2574 809 2566 790C 2553 758 2553 751 2570 715C 2590 672 2607 662 2662 661C 2692 660 2713 670 2762 706C 2836 760 2842 768 2834 808C 2830 830 2811 852 2769 884C 2736 909 2706 930 2702 930C 2697 930 2668 906 2637 878zM2706 859C 2709 853 2697 833 2679 814C 2661 795 2652 780 2658 780C 2680 780 2750 832 2743 844C 2740 850 2747 845 2760 834C 2784 811 2781 770 2755 770C 2747 770 2735 758 2728 743C 2712 710 2667 693 2634 709C 2609 720 2591 768 2607 779C 2613 782 2620 795 2624 807C 2628 819 2639 832 2650 835C 2660 838 2671 847 2674 855C 2680 873 2696 874 2706 859z" stroke="none" fill="#FFFFFF" fill-rule="nonzero" />
            <path d="M2560 615C 2547 589 2531 570 2522 570C 2507 569 2507 568 2523 559C 2537 551 2539 545 2529 534C 2523 526 2522 520 2527 520C 2540 520 2542 463 2529 454C 2523 451 2508 458 2495 471L2495 471L2472 495L2498 523C 2512 538 2519 550 2514 550C 2503 550 2478 522 2455 483C 2445 467 2444 462 2452 472C 2465 488 2468 487 2482 462C 2493 442 2495 426 2488 403C 2477 362 2465 361 2445 400C 2436 417 2425 430 2419 430C 2404 430 2419 388 2439 373C 2448 367 2452 358 2448 354C 2440 347 2389 376 2391 388C 2396 417 2389 422 2370 405C 2359 395 2350 392 2350 398C 2350 405 2345 410 2339 410C 2321 410 2333 394 2378 356C 2426 317 2470 308 2470 338C 2470 353 2476 356 2500 352C 2525 348 2530 351 2530 369C 2530 381 2523 405 2514 423C 2497 455 2498 455 2517 438C 2541 416 2579 415 2586 435C 2590 443 2584 469 2575 493C 2566 516 2555 541 2552 549C 2549 557 2551 561 2557 557C 2562 553 2575 556 2584 563C 2598 573 2599 581 2591 603C 2585 618 2583 637 2586 645C 2599 678 2580 657 2560 615z" stroke="none" fill="#FFFFFF" fill-rule="nonzero" />
            <path d="M660 26C 660 18 665 8 670 5C 676 2 680 8 680 19C 680 31 676 40 670 40C 665 40 660 34 660 26z" stroke="none" fill="#FFFFFF" fill-rule="nonzero" />
            <path d="M760 15C 760 7 765 0 770 0C 776 0 780 7 780 15C 780 23 776 30 770 30C 765 30 760 23 760 15z" stroke="none" fill="#FFFFFF" fill-rule="nonzero" />
		</g>
	</g>
</g>
</svg>