<?xml version="1.0" standalone="no"?>
<!DOCTYPE svg PUBLIC "-//W3C//DTD SVG 20010904//EN"
 "http://www.w3.org/TR/2001/REC-SVG-20010904/DTD/svg10.dtd">
<svg version="1.0" xmlns="http://www.w3.org/2000/svg"
 width="900.000000pt" height="861.000000pt" viewBox="0 0 900.000000 861.000000"
 preserveAspectRatio="xMidYMid meet">
<metadata>
Created by potrace 1.10, written by Peter Selinger 2001-2011
</metadata>
<g transform="translate(0.000000,861.000000) scale(0.100000,-0.100000)"
fill="#ffffff" stroke="none">
<path d="M3873 7590 c-89 -5 -171 -14 -183 -20 -13 -7 -68 -14 -124 -17 -115
-5 -233 -28 -259 -51 -14 -12 -37 -16 -89 -14 -50 1 -79 -3 -94 -13 -13 -8
-36 -15 -51 -15 -15 0 -37 -7 -47 -15 -11 -8 -31 -15 -45 -15 -14 0 -35 -7
-45 -15 -11 -8 -27 -15 -37 -15 -9 0 -22 -7 -29 -15 -7 -8 -20 -15 -30 -15 -9
0 -36 -18 -60 -40 -24 -22 -52 -40 -63 -40 -22 0 -87 -41 -209 -132 -42 -32
-81 -58 -86 -58 -5 0 -22 -17 -37 -37 -16 -21 -56 -65 -90 -98 -53 -51 -96
-107 -150 -197 -6 -9 -26 -36 -46 -60 -42 -49 -99 -150 -99 -176 0 -9 -7 -26
-15 -36 -8 -11 -15 -34 -15 -50 -1 -17 -7 -42 -15 -56 -8 -14 -15 -45 -15 -70
-1 -49 -28 -139 -51 -166 -19 -23 -18 -209 2 -244 8 -14 14 -41 14 -60 0 -30
4 -36 25 -39 14 -1 28 -8 31 -13 4 -7 13 -6 27 1 34 18 72 14 72 -8 0 -10 -6
-21 -14 -24 -8 -3 -17 -24 -21 -46 -4 -23 -11 -43 -16 -47 -5 -3 -9 -18 -9
-34 0 -16 -4 -32 -10 -35 -15 -9 -12 -25 5 -25 13 0 65 93 65 117 0 6 7 34 17
62 12 39 22 53 40 57 27 7 141 -14 149 -27 3 -5 26 -9 52 -9 26 -1 65 -9 87
-20 22 -11 48 -19 57 -20 9 0 20 -4 23 -10 3 -5 15 -10 27 -10 11 0 32 -6 46
-13 15 -8 45 -23 66 -33 22 -10 44 -24 50 -29 23 -22 66 -45 83 -45 10 0 29
-6 43 -13 14 -7 50 -21 80 -31 30 -10 68 -24 83 -32 21 -10 73 -14 199 -14
169 0 192 3 303 43 17 5 57 12 90 15 33 2 65 7 70 12 6 4 36 11 68 15 32 3 70
13 85 21 15 7 39 14 54 14 15 0 29 4 32 9 4 5 50 12 103 16 53 4 113 14 132
23 25 10 94 16 226 21 105 4 195 10 201 14 6 3 20 0 30 -8 27 -21 39 -18 52
10 8 17 20 25 37 25 63 0 5 -70 -75 -89 -30 -8 -64 -20 -75 -27 -11 -8 -33
-14 -50 -14 -16 0 -39 -7 -49 -15 -11 -8 -33 -15 -49 -15 -15 0 -35 -7 -43
-15 -9 -8 -29 -15 -47 -15 -17 0 -56 -7 -86 -15 -63 -17 -191 -30 -491 -49
-194 -13 -245 -22 -308 -55 -42 -23 -101 -39 -121 -34 -12 3 -32 -2 -47 -12
-18 -11 -38 -15 -60 -12 -24 4 -32 2 -28 -7 4 -10 -2 -12 -21 -8 -15 2 -36 0
-48 -6 -12 -6 -34 -13 -49 -16 -17 -4 -28 -13 -28 -23 0 -21 -61 -76 -127
-114 -37 -21 -53 -37 -53 -51 0 -17 4 -19 23 -13 59 19 82 17 111 -10 15 -14
25 -32 23 -39 -3 -8 3 -22 13 -31 11 -10 22 -27 26 -37 6 -21 29 -52 52 -72 8
-6 36 -34 63 -62 50 -52 66 -59 154 -70 22 -3 49 -9 60 -14 44 -21 77 -30 86
-24 16 10 -10 32 -30 27 -11 -3 -28 4 -40 16 -12 12 -25 21 -31 21 -19 0 -129
62 -157 89 -35 33 -78 61 -95 61 -29 0 -41 16 -29 39 15 27 32 27 79 -2 44
-27 87 -48 159 -76 29 -12 68 -31 86 -44 18 -12 53 -30 77 -41 25 -10 59 -25
77 -32 17 -8 37 -14 45 -14 8 0 18 -4 24 -10 13 -13 91 -30 203 -43 71 -8 106
-7 145 2 28 7 89 16 136 21 47 5 101 13 120 19 19 6 84 13 145 16 142 7 145 8
145 51 0 19 5 43 12 54 9 15 10 27 1 52 -6 18 -15 60 -18 93 -8 69 -27 141
-47 176 -30 54 -30 54 -188 135 -25 13 -212 54 -247 54 -10 0 -25 5 -33 10
-12 7 -12 12 -2 22 9 9 51 13 150 13 128 0 180 7 267 37 17 5 41 12 55 15 14
2 34 8 45 13 152 67 187 71 222 23 49 -67 88 -118 104 -134 24 -24 69 -117 69
-143 0 -12 -7 -31 -15 -42 -8 -10 -15 -28 -15 -39 0 -11 -9 -37 -20 -58 -11
-20 -20 -42 -20 -47 0 -6 -19 -40 -42 -75 -39 -62 -59 -77 -73 -55 -11 17 -25
1 -25 -28 0 -30 -43 -63 -94 -72 -16 -3 -31 -11 -34 -19 -4 -11 3 -12 31 -7
25 5 36 3 40 -8 7 -17 -1 -26 -24 -26 -10 0 -24 -6 -31 -13 -7 -7 -33 -23 -58
-36 -25 -12 -65 -33 -90 -47 -25 -13 -51 -24 -57 -24 -7 0 -13 -4 -13 -10 0
-5 -6 -10 -12 -10 -15 0 -145 -65 -168 -84 -14 -11 -52 -25 -158 -56 -51 -16
-73 -37 -51 -50 19 -12 95 7 186 46 17 8 34 14 38 14 4 0 27 14 52 30 24 17
47 30 50 30 7 0 131 57 153 71 8 5 30 15 48 23 75 34 174 112 216 169 l18 26
29 -21 c16 -12 29 -28 29 -35 0 -7 5 -13 10 -13 6 0 10 7 10 16 0 34 293 0
372 -42 14 -8 44 -14 67 -14 26 0 60 -11 94 -29 l53 -29 267 -6 c147 -4 278
-11 292 -16 61 -23 191 -6 202 26 6 19 -68 24 -418 25 l-336 2 -35 32 c-20 17
-55 37 -79 44 -24 7 -66 19 -94 27 -64 18 -202 34 -238 27 -15 -3 -40 0 -56 7
-16 6 -47 13 -69 14 -22 2 -45 7 -51 10 -18 12 -12 44 9 51 11 3 20 9 20 13 0
4 16 24 35 46 19 21 35 46 35 55 0 9 5 22 10 27 6 6 17 39 26 75 8 35 17 69
19 76 3 8 18 6 56 -7 41 -15 56 -17 73 -8 11 7 69 13 127 15 59 2 128 8 155
14 27 5 74 13 104 16 30 3 64 12 75 19 11 8 29 14 40 14 11 0 29 7 39 15 11 8
29 15 41 15 12 0 30 7 41 15 10 8 33 15 50 15 17 0 55 7 85 16 31 9 86 16 129
15 92 -1 116 5 99 25 -6 8 -20 14 -31 14 -11 0 -29 5 -41 12 -12 6 -41 15 -65
18 -34 6 -42 4 -38 -6 7 -19 -33 -27 -98 -22 -43 4 -56 1 -64 -13 -9 -13 -20
-16 -52 -12 -34 5 -39 3 -34 -11 5 -13 -2 -16 -46 -16 -44 0 -51 -2 -41 -14
10 -12 -2 -14 -81 -11 -50 2 -98 1 -105 -2 -22 -9 -2 -25 24 -19 13 4 29 3 36
-1 24 -16 -77 -19 -105 -4 -23 12 -33 13 -67 1 -34 -11 -39 -16 -29 -28 11
-13 8 -14 -22 -7 -18 4 -40 14 -48 22 -16 16 -51 9 -69 -14 -6 -8 -29 -17 -51
-20 -54 -7 -79 20 -109 120 -10 33 18 94 63 137 24 23 44 46 44 51 0 5 6 9 14
9 8 0 29 8 48 17 58 29 65 32 104 39 22 3 44 10 49 14 6 4 30 10 54 14 24 4
56 13 72 21 19 10 60 15 132 15 104 0 105 0 191 -44 48 -25 100 -48 117 -51
16 -4 29 -11 29 -16 0 -5 6 -9 14 -9 8 0 27 -5 43 -12 48 -20 252 -68 316 -75
43 -4 48 -3 45 13 -4 22 -59 42 -118 43 -25 1 -54 7 -65 15 -11 7 -43 16 -72
20 -28 4 -64 13 -80 21 -15 8 -34 15 -41 15 -7 0 -20 4 -30 9 -60 33 -154 75
-192 87 -64 20 -289 19 -337 -1 -19 -8 -44 -15 -55 -15 -47 0 -169 -47 -224
-87 -17 -13 -36 -23 -42 -23 -19 0 -91 -82 -97 -111 -10 -43 -29 -54 -48 -27
-8 13 -31 41 -51 63 -21 24 -38 54 -41 75 -16 101 -16 98 4 105 11 3 53 6 93
7 74 0 159 18 184 39 25 21 351 29 787 21 302 -6 431 -12 439 -20 7 -7 32 -12
58 -12 25 0 66 -7 91 -14 46 -14 125 -11 135 5 2 4 5 34 6 65 1 43 -2 58 -15
66 -9 5 -17 14 -17 19 0 6 -13 37 -30 71 -16 33 -30 67 -30 75 0 24 23 9 44
-30 12 -20 36 -52 54 -72 17 -20 32 -45 32 -55 0 -11 4 -21 9 -25 5 -3 17 -28
26 -55 10 -31 29 -60 49 -77 37 -31 70 -98 81 -164 4 -24 10 -48 14 -54 5 -9
7 -25 10 -95 2 -32 -20 -165 -29 -175 -6 -7 -2 -17 10 -28 11 -9 20 -21 20
-26 0 -17 -18 -22 -27 -7 -4 7 -37 28 -73 46 -36 18 -73 36 -82 41 -10 5 -32
9 -50 9 -18 1 -44 7 -58 15 -14 8 -39 14 -57 15 -17 0 -34 4 -38 9 -3 6 -27
13 -53 17 -26 3 -51 10 -57 14 -5 5 -32 11 -60 15 -27 4 -62 14 -77 21 -33 17
-78 18 -78 3 0 -6 -31 -41 -68 -78 -37 -36 -79 -86 -91 -111 -22 -42 -23 -53
-17 -145 8 -111 19 -136 68 -154 18 -7 44 -19 58 -26 69 -35 193 -67 244 -63
97 8 282 117 301 178 8 24 -12 206 -25 230 -14 27 -13 30 15 30 14 0 25 -4 25
-9 0 -5 26 -26 58 -47 31 -20 70 -49 85 -63 36 -33 61 -78 47 -86 -6 -3 -10
-19 -10 -35 0 -16 -6 -35 -14 -42 -7 -8 -17 -25 -21 -38 -4 -14 -11 -27 -14
-30 -4 -3 -14 -17 -24 -32 -10 -16 -23 -28 -30 -28 -6 0 -25 -7 -40 -15 -15
-8 -44 -17 -63 -21 -20 -4 -49 -19 -64 -34 -24 -24 -38 -28 -116 -34 -104 -9
-154 -26 -154 -55 0 -29 -47 -61 -89 -61 -20 0 -53 -9 -74 -20 -56 -30 -112
-27 -154 10 -33 30 -34 30 -156 30 -72 0 -147 6 -182 15 -33 8 -95 14 -138 15
-60 0 -79 3 -83 15 -4 8 -16 15 -28 15 -11 0 -34 7 -50 15 -15 8 -42 15 -60
15 -17 0 -42 6 -57 13 -14 8 -50 17 -80 21 -29 4 -67 9 -84 11 -99 14 -165 17
-165 6 0 -6 11 -13 25 -17 14 -3 29 -12 33 -20 9 -15 125 -35 143 -23 6 3 27
-4 47 -17 30 -21 43 -23 83 -18 40 5 52 3 75 -15 15 -11 31 -21 37 -21 6 0 18
-6 26 -13 35 -30 197 -55 232 -37 22 12 72 -4 119 -39 50 -37 109 -65 118 -57
4 4 -1 13 -10 20 -10 7 -15 16 -11 19 11 12 221 8 225 -4 9 -27 198 4 250 42
62 46 86 52 119 28 33 -23 33 -23 19 -50 -9 -15 -7 -21 5 -25 17 -7 21 -39 5
-49 -5 -3 -19 -27 -30 -53 -27 -60 -47 -82 -77 -82 -13 0 -34 -5 -45 -11 -12
-6 -57 -15 -102 -20 -45 -6 -100 -12 -124 -15 -28 -4 -48 -2 -58 7 -12 10 -63
13 -213 11 -108 -1 -245 3 -306 9 -130 11 -114 11 -245 5 -130 -7 -279 -32
-335 -56 -78 -34 -150 -45 -425 -70 -63 -6 -155 -17 -205 -25 -49 -8 -134 -17
-189 -20 -54 -3 -107 -10 -117 -15 -28 -15 -145 -12 -158 4 -8 9 -50 15 -134
20 -67 4 -142 12 -167 17 -25 6 -117 9 -205 9 -88 -1 -171 -2 -184 -1 -13 1
-29 -3 -35 -8 -6 -4 -46 -11 -89 -14 -50 -4 -83 -11 -90 -20 -7 -8 -34 -29
-62 -47 -27 -18 -57 -42 -65 -54 -8 -11 -31 -38 -52 -59 -25 -25 -38 -47 -38
-65 0 -33 36 -102 73 -141 15 -16 27 -32 27 -36 0 -3 4 -11 10 -18 5 -7 21
-27 36 -44 14 -18 31 -33 38 -33 7 0 21 -9 31 -20 10 -11 26 -20 36 -20 10 0
20 -4 23 -9 3 -5 23 -12 43 -16 21 -4 43 -11 49 -16 14 -11 1307 -15 1325 -3
8 5 59 14 114 21 55 7 127 17 160 22 33 5 91 10 128 10 38 1 76 5 85 10 16 9
213 45 292 54 19 2 55 9 80 15 178 44 475 58 576 27 35 -11 99 -15 224 -15
125 -1 186 -5 215 -15 22 -8 60 -17 84 -21 l45 -7 -23 -18 c-13 -11 -30 -19
-38 -19 -11 0 -13 -7 -9 -25 8 -33 -34 -75 -76 -75 -20 0 -37 -9 -54 -29 -13
-16 -39 -33 -56 -36 -29 -7 -30 -9 -14 -20 16 -12 15 -15 -9 -39 -14 -14 -32
-26 -40 -26 -14 0 -115 -43 -178 -75 -16 -8 -34 -15 -42 -15 -7 0 -18 -6 -25
-14 -6 -8 -28 -16 -48 -18 -26 -2 -38 -8 -40 -20 -7 -39 109 -11 245 58 84 42
106 56 116 72 4 6 19 12 32 12 16 0 35 14 60 44 42 52 66 60 120 42 33 -12 41
-20 47 -47 8 -43 -9 -80 -116 -258 -89 -147 -127 -211 -164 -281 -30 -54 -41
-74 -71 -123 -13 -21 -35 -60 -50 -87 -44 -83 -122 -210 -133 -217 -6 -3 -20
6 -31 21 -10 14 -31 33 -46 40 -14 8 -44 32 -67 53 -96 89 -135 122 -171 143
-21 13 -64 47 -95 77 -31 29 -61 53 -67 53 -6 0 -44 23 -84 50 -41 28 -77 50
-82 50 -4 0 -37 20 -74 44 -117 77 -145 92 -196 106 -27 8 -75 25 -105 39 -51
23 -53 25 -31 34 15 7 59 7 139 -2 274 -29 443 -30 662 -1 92 12 157 40 144
62 -8 12 -68 10 -81 -3 -10 -10 -340 -32 -354 -23 -4 2 -224 4 -490 5 -432 1
-486 3 -503 18 -16 14 -90 16 -739 19 -397 2 -726 7 -732 11 -5 5 -61 12 -124
15 -63 4 -123 12 -132 17 -10 5 -46 12 -81 15 -35 4 -67 10 -73 14 -5 4 -34
10 -64 13 -29 4 -58 10 -65 15 -10 9 -31 15 -151 42 -22 5 -58 16 -80 24 -22
8 -47 15 -56 16 -20 0 -74 27 -87 43 -17 21 -62 109 -62 123 0 7 5 14 10 16 7
2 5 19 -5 47 -8 24 -15 66 -15 93 0 27 -5 59 -12 71 -6 12 -12 64 -13 117 -3
120 -13 186 -31 201 -16 13 -20 134 -5 143 13 9 22 64 21 131 -1 45 -6 64 -21
78 -17 16 -19 33 -18 200 1 205 5 241 24 233 9 -3 17 11 25 45 11 43 10 52 -4
68 -20 22 -21 78 -1 124 8 20 15 49 15 65 0 15 7 37 15 48 8 10 15 30 15 43 0
13 13 40 30 61 16 21 30 45 30 53 0 22 19 31 26 13 13 -34 26 -14 21 32 -2 26
-2 39 0 30 7 -29 33 -21 40 12 3 17 10 33 14 36 5 3 9 13 9 22 0 9 12 28 25
41 26 24 32 41 15 41 -5 0 -10 -4 -10 -10 0 -5 -4 -10 -10 -10 -18 0 -11 15
25 56 44 50 45 66 3 62 -22 -2 -36 -10 -44 -26 -6 -12 -29 -39 -52 -60 -23
-20 -44 -49 -48 -65 -3 -15 -10 -30 -15 -33 -5 -3 -9 -17 -9 -32 0 -27 -32
-88 -56 -107 -17 -13 -64 -104 -64 -124 0 -9 -6 -36 -14 -61 -24 -76 -45 -229
-51 -371 -3 -74 -10 -151 -15 -170 -16 -54 -12 -214 5 -256 14 -32 14 -44 0
-109 -19 -90 -19 -155 0 -309 8 -66 15 -145 15 -175 1 -30 7 -73 15 -95 8 -22
15 -61 15 -86 0 -29 6 -51 15 -59 8 -7 15 -19 15 -26 0 -8 4 -14 8 -14 5 0 18
-14 31 -31 22 -29 22 -31 5 -50 -13 -14 -30 -19 -70 -19 -61 0 -71 -9 -48 -45
17 -25 16 -27 -15 -58 -17 -18 -31 -40 -31 -48 0 -8 -7 -24 -15 -35 -8 -10
-15 -28 -15 -40 0 -11 -7 -29 -15 -40 -8 -10 -15 -30 -15 -42 0 -13 -6 -36
-13 -50 -8 -15 -22 -45 -32 -67 -9 -22 -25 -53 -34 -70 -12 -23 -18 -72 -23
-205 -4 -96 -12 -254 -18 -350 -20 -313 -26 -524 -18 -555 5 -16 13 -61 18
-100 39 -316 72 -509 106 -615 8 -25 14 -65 14 -90 0 -69 28 -211 45 -230 8
-9 15 -21 15 -27 0 -20 54 -30 170 -32 109 -2 116 -3 138 -27 26 -29 28 -60 7
-100 -8 -16 -15 -50 -15 -75 0 -25 -5 -61 -12 -80 -10 -32 -65 -91 -115 -126
-18 -12 -23 -25 -23 -62 0 -26 -7 -74 -16 -106 -11 -44 -14 -82 -9 -142 l7
-83 53 0 c45 0 53 3 58 21 3 12 -1 32 -10 45 -10 16 -14 36 -10 60 5 26 1 40
-13 54 -16 16 -18 28 -13 72 7 61 20 88 67 141 30 33 35 36 44 22 8 -15 12
-13 31 13 11 17 21 35 21 41 0 7 6 22 14 34 23 35 24 156 2 190 -27 39 -9 55
36 32 32 -16 136 -20 740 -25 l38 0 -2 -101 c-2 -95 0 -103 21 -120 13 -11 34
-19 47 -19 14 0 24 -6 24 -14 0 -8 7 -17 16 -20 9 -3 14 -12 11 -20 -4 -10 0
-12 14 -9 15 4 19 0 19 -21 0 -15 7 -29 15 -32 10 -4 15 -20 15 -44 0 -21 7
-43 15 -50 22 -19 22 -215 -1 -224 -40 -16 -89 -6 -117 23 -15 16 -27 34 -27
40 0 21 -80 91 -104 91 -27 0 -36 -16 -36 -68 0 -20 -7 -46 -15 -56 -25 -33
-19 -56 15 -56 32 0 33 1 34 95 1 47 29 62 40 21 3 -14 25 -46 49 -71 l43 -45
77 0 c105 0 112 10 104 158 -3 70 -10 117 -21 137 -9 17 -16 36 -16 44 0 58
-88 156 -145 163 l-30 3 -6 110 c-3 61 -2 114 2 118 9 12 188 3 224 -11 132
-50 293 -71 595 -77 444 -9 510 -11 641 -20 107 -7 133 -5 178 10 50 16 53 16
72 -1 19 -17 22 -17 67 -1 33 12 79 17 152 17 58 0 141 7 185 15 44 8 109 15
145 15 67 1 221 31 243 47 37 29 137 35 532 29 614 -9 899 -17 908 -25 4 -4 1
-21 -8 -37 -8 -16 -15 -37 -15 -47 0 -10 -7 -25 -15 -33 -8 -9 -15 -25 -15
-37 0 -12 -7 -31 -15 -41 -8 -11 -15 -39 -15 -62 0 -25 -6 -47 -15 -54 -8 -7
-15 -29 -15 -50 0 -21 -7 -43 -15 -50 -8 -7 -15 -29 -15 -49 0 -20 -7 -45 -15
-55 -8 -11 -15 -35 -15 -54 0 -18 -7 -40 -15 -48 -8 -9 -15 -26 -15 -39 0 -13
-4 -27 -10 -30 -5 -3 -10 -15 -10 -26 0 -13 7 -19 24 -19 24 0 36 16 36 48 0
9 7 30 15 46 8 15 15 43 15 60 0 18 7 41 15 52 8 10 15 33 15 50 0 17 7 37 15
44 9 7 15 29 15 51 0 20 7 44 15 53 8 8 15 30 15 48 0 18 6 42 14 53 7 11 17
39 21 62 4 24 11 45 16 49 5 3 9 18 9 33 0 15 7 36 15 47 20 26 19 64 -2 80
-17 12 -17 13 2 19 74 24 107 45 163 103 34 35 62 68 62 72 0 4 -6 13 -14 19
-9 8 -15 55 -20 163 -4 84 -12 174 -17 200 -13 57 -8 120 9 126 7 2 15 -9 18
-28 4 -17 10 -28 14 -23 9 10 -5 239 -19 318 -6 32 -11 68 -11 80 0 14 49 70
140 162 208 211 229 223 235 136 3 -49 19 -89 39 -96 9 -4 16 -16 16 -28 0
-16 5 -20 20 -16 16 4 24 -2 35 -29 8 -19 19 -34 24 -34 19 0 23 -47 7 -78 -8
-16 -31 -39 -51 -50 -19 -12 -35 -28 -35 -36 0 -9 -13 -29 -30 -46 -16 -17
-30 -39 -30 -49 0 -12 -10 -21 -26 -25 -18 -5 -24 -12 -20 -22 6 -16 0 -25
-51 -79 -18 -19 -33 -41 -33 -49 0 -8 -15 -19 -34 -26 -22 -7 -38 -21 -46 -40
-6 -16 -20 -36 -30 -45 -17 -16 -19 -15 -30 6 -12 21 -13 21 -23 3 -6 -10 -14
-22 -19 -25 -17 -11 -12 -92 7 -106 19 -13 45 -2 45 21 0 6 24 37 53 69 28 31
68 80 87 109 19 28 48 65 65 82 16 17 50 61 75 98 58 86 168 208 187 208 8 0
34 20 59 45 24 25 50 45 57 45 21 0 49 47 42 70 -7 23 -21 26 -28 7 -3 -8 -29
-12 -88 -11 -69 1 -85 4 -94 19 -20 35 -128 180 -141 191 -18 14 -18 44 0 69
22 33 27 72 13 112 -11 34 -101 160 -133 188 -14 12 -84 120 -100 155 -4 8
-10 17 -14 20 -4 3 -30 55 -59 115 -30 61 -57 117 -62 125 -5 8 -12 22 -15 30
-30 73 -46 91 -146 170 -59 47 -108 88 -108 93 0 4 -8 7 -18 7 -10 0 -27 7
-38 15 -10 8 -29 15 -40 15 -12 0 -27 7 -34 15 -7 8 -20 15 -29 15 -9 0 -25 7
-35 15 -11 8 -27 15 -37 15 -9 0 -22 7 -29 15 -7 8 -20 15 -30 15 -10 0 -38 9
-64 20 -34 15 -46 27 -46 42 0 11 -16 35 -36 52 -41 36 -39 53 10 80 18 9 52
37 76 62 23 24 49 44 57 44 11 0 13 7 9 26 -5 18 -2 32 11 46 13 15 17 34 16
76 -1 30 -7 58 -13 62 -12 7 -31 38 -49 77 -5 11 -15 24 -20 28 -6 3 -11 22
-11 41 0 33 1 34 39 34 22 0 44 6 51 15 7 8 19 15 27 15 8 0 35 17 60 38 44
36 45 38 40 83 -8 66 -72 179 -102 179 -18 0 -85 32 -85 40 0 4 11 27 25 51
14 24 27 51 31 59 3 8 10 22 15 30 5 8 12 22 15 30 3 8 10 22 15 30 5 8 12 22
15 30 11 30 38 75 48 82 6 4 21 8 34 8 12 0 30 4 40 9 9 6 28 12 42 15 29 6
80 83 80 120 0 13 7 29 15 36 8 7 15 23 15 36 0 12 5 35 11 51 7 15 13 48 15
72 2 24 10 51 17 60 8 9 17 32 20 51 23 150 28 203 24 255 -5 65 -26 144 -43
166 -7 8 -15 34 -19 59 -4 25 -18 59 -31 77 -13 17 -24 36 -24 42 0 12 -80 89
-100 96 -8 3 -25 27 -37 54 -14 31 -40 64 -70 88 -27 21 -52 43 -58 49 -18 19
-90 71 -107 77 -14 5 -18 18 -18 52 0 26 -5 56 -12 68 -13 25 -26 71 -38 142
-9 45 -36 112 -51 125 -6 5 -31 50 -48 86 -5 12 -34 48 -63 80 -30 32 -76 88
-103 124 -27 36 -52 67 -55 70 -3 3 -33 37 -65 75 -54 64 -117 120 -155 139
-17 8 -35 19 -95 57 -22 14 -47 29 -55 32 -8 4 -28 16 -45 27 -16 11 -42 25
-57 31 -16 6 -28 15 -28 20 0 5 -8 9 -19 9 -10 0 -24 7 -31 15 -7 8 -22 15
-34 15 -11 0 -34 7 -50 15 -15 8 -38 15 -50 15 -12 0 -31 7 -42 15 -10 8 -35
15 -55 15 -20 0 -56 7 -79 15 -23 8 -54 15 -68 15 -28 0 -120 25 -170 46 -18
8 -61 14 -97 14 -37 0 -69 5 -77 13 -29 27 -125 46 -258 51 -331 13 -394 14
-547 6z m-53 -75 c-10 -13 -9 -15 12 -15 14 0 28 3 31 7 18 17 246 25 387 13
211 -19 210 -19 210 -4 0 9 11 14 31 14 28 0 30 -2 18 -17 -13 -15 -9 -16 42
-11 61 7 96 -4 69 -22 -10 -6 -4 -8 22 -3 48 7 75 -2 59 -21 -14 -17 0 -29 24
-20 9 4 14 13 11 20 -8 21 41 18 53 -3 7 -13 20 -17 53 -14 39 2 41 1 24 -12
-18 -13 -18 -14 8 -21 15 -4 50 -4 79 -1 48 6 50 5 28 -8 -34 -20 -15 -26 59
-18 78 9 106 5 89 -15 -9 -11 -6 -14 19 -14 19 0 35 -7 41 -17 10 -17 10 -17
11 0 0 12 8 17 31 17 26 0 29 -2 20 -14 -17 -21 2 -29 52 -21 39 5 41 5 23 -9
-18 -15 -18 -16 8 -26 36 -13 53 -13 59 3 4 8 6 7 6 -3 2 -25 67 -61 97 -54
21 5 25 3 22 -12 -2 -15 2 -18 25 -16 24 3 27 0 27 -27 0 -33 16 -42 27 -16 5
14 7 14 24 -1 10 -9 15 -22 13 -29 -7 -18 15 -30 29 -16 12 12 47 15 47 5 0
-4 -8 -13 -17 -20 -17 -12 -17 -13 1 -20 11 -4 21 -2 27 7 8 11 13 10 28 -8
11 -13 24 -23 30 -23 19 0 12 -20 -6 -20 -16 -1 -16 -2 2 -16 12 -9 21 -11 23
-4 5 15 22 12 22 -5 0 -8 6 -15 14 -15 8 0 20 -19 28 -42 9 -32 18 -43 33 -43
12 0 20 -7 19 -17 -1 -10 4 -14 12 -11 8 3 17 -3 21 -13 3 -11 11 -22 16 -25
5 -4 10 -19 10 -34 0 -20 2 -24 9 -14 6 10 11 10 14 3 3 -6 18 -26 34 -44 17
-19 30 -39 30 -46 0 -8 6 -11 14 -8 17 6 31 -12 16 -21 -14 -8 -3 -25 13 -20
11 4 32 -33 50 -87 4 -10 11 -18 17 -18 5 0 10 -13 10 -30 0 -19 5 -30 14 -30
18 0 28 -67 15 -92 -13 -24 -4 -52 15 -45 11 4 16 -6 21 -36 4 -23 12 -45 18
-49 8 -5 7 -14 -3 -32 -11 -22 -11 -28 2 -43 8 -10 29 -42 47 -72 26 -42 30
-56 19 -62 -20 -13 -81 -11 -103 4 -33 22 -107 45 -164 51 -37 4 -64 14 -90
33 -24 19 -53 30 -91 34 -93 11 -173 28 -184 39 -5 5 -33 10 -62 10 -28 0 -71
8 -95 17 -39 15 -91 17 -464 18 -312 0 -441 -4 -500 -14 -44 -7 -109 -16 -145
-18 -36 -3 -71 -10 -78 -16 -14 -11 -46 -15 -149 -17 -35 -1 -65 -5 -68 -10
-14 -23 -89 -50 -141 -50 -53 0 -117 -16 -191 -47 -17 -7 -35 -13 -41 -13 -5
0 -23 -7 -38 -15 -16 -8 -43 -15 -61 -15 -17 0 -34 -4 -37 -9 -8 -12 -84 -51
-100 -51 -14 0 -76 -29 -86 -40 -12 -14 -157 -106 -185 -118 -39 -17 -138 -83
-148 -99 -4 -7 -16 -13 -25 -13 -9 0 -37 -18 -61 -40 -25 -22 -52 -40 -61 -40
-10 0 -29 -9 -43 -20 -30 -24 -50 -25 -67 -5 -7 8 -18 15 -26 15 -16 0 -83 30
-104 46 -28 22 -130 72 -160 79 -16 4 -32 11 -35 16 -4 5 -18 9 -33 9 -15 0
-37 6 -48 14 -11 8 -42 19 -70 25 -27 5 -71 15 -99 21 -27 6 -77 10 -110 9
-34 -1 -70 3 -82 9 -12 7 -37 12 -55 12 -75 0 -73 -3 -73 138 0 79 5 135 12
147 6 12 15 49 19 83 6 61 18 79 27 45 3 -10 5 23 6 72 2 80 3 87 15 66 11
-21 14 -21 20 -6 3 10 4 32 0 50 -4 23 0 41 11 59 9 14 14 30 10 36 -4 7 2 14
14 17 14 4 21 13 21 30 0 18 4 24 15 19 10 -3 15 1 15 14 0 22 17 35 45 35 16
0 20 6 19 30 0 21 9 39 33 62 28 26 33 36 27 59 -6 23 -4 26 10 21 11 -4 15
-3 11 4 -9 13 41 63 54 54 6 -3 8 0 5 8 -3 8 -1 18 5 22 6 3 11 1 11 -4 0 -6
7 -11 15 -11 8 0 15 5 15 10 0 6 -4 10 -10 10 -5 0 -10 7 -10 15 0 8 6 15 14
15 8 0 17 7 20 16 4 9 13 14 21 10 9 -3 15 0 15 8 0 16 71 76 90 76 7 0 10 7
6 15 -4 11 2 15 25 15 24 0 30 4 25 15 -4 12 3 15 29 15 24 0 35 5 35 15 0 8
7 15 15 15 8 0 15 4 15 9 0 5 14 11 30 15 17 3 30 11 30 17 0 6 -7 9 -15 6 -8
-4 -17 -1 -21 5 -5 8 4 9 29 5 30 -5 39 -2 47 14 6 10 20 19 30 19 11 0 20 7
20 16 0 8 5 12 10 9 18 -11 32 6 18 22 -11 14 -9 15 19 9 18 -4 40 -3 50 3 10
6 12 11 6 11 -7 0 -13 5 -13 10 0 14 37 13 42 -1 4 -12 58 9 58 23 0 4 19 8
43 8 23 0 53 7 65 16 13 9 31 13 43 9 11 -4 26 -1 34 5 9 7 26 9 41 6 29 -8
109 26 118 49 4 12 26 15 97 15 67 0 97 4 108 15 27 23 95 30 114 11 21 -22
83 -8 81 17 -1 13 7 17 33 17 30 0 34 -2 23 -15z m1641 -1299 c15 -7 62 -17
105 -21 44 -3 112 -17 153 -30 40 -14 101 -27 134 -31 34 -4 82 -18 106 -31
25 -13 67 -27 95 -33 92 -16 146 -31 146 -41 0 -5 40 -9 89 -9 l89 0 16 -34
c9 -19 16 -39 16 -45 0 -13 27 -58 48 -80 7 -7 12 -21 10 -30 -3 -14 -18 -16
-108 -13 -57 1 -109 7 -114 12 -6 6 -27 10 -47 10 -20 0 -54 6 -75 14 -31 11
-136 13 -534 10 -498 -2 -603 -9 -641 -41 -10 -8 -43 -13 -90 -13 -41 0 -80
-5 -85 -10 -6 -6 -45 -12 -87 -14 -42 -2 -84 -9 -92 -16 -10 -9 -76 -14 -218
-18 -111 -2 -207 -8 -213 -13 -11 -9 -180 -39 -259 -46 -27 -2 -59 -8 -70 -12
-71 -28 -155 -51 -187 -51 -20 0 -39 -4 -42 -9 -3 -4 -37 -11 -77 -14 -39 -3
-76 -11 -83 -16 -7 -6 -31 -13 -54 -17 -23 -4 -45 -11 -48 -15 -3 -5 -81 -9
-173 -9 -147 0 -172 2 -191 18 l-22 18 39 26 c21 15 63 44 93 64 30 20 78 52
105 70 28 19 56 34 63 34 7 0 48 24 90 53 97 67 199 127 217 127 16 0 73 29
93 48 7 6 28 12 47 12 18 0 46 7 61 15 16 8 36 15 45 15 9 0 30 7 45 15 16 8
41 15 55 15 14 0 48 7 75 15 27 8 63 15 79 15 17 0 39 7 49 15 11 9 42 15 70
15 29 0 59 7 70 15 12 9 43 15 80 15 34 0 88 7 121 15 33 8 81 14 106 15 26 0
62 7 80 15 48 20 781 22 820 1z m1240 -429 c-13 -13 -26 -3 -16 12 3 6 11 8
17 5 6 -4 6 -10 -1 -17z m-2816 -407 c3 -5 19 -10 34 -10 15 0 31 -4 37 -9 5
-5 36 -18 69 -29 83 -28 193 -80 213 -101 29 -29 72 -89 72 -100 0 -17 -30
-13 -77 10 -42 20 -45 20 -86 4 -48 -19 -120 -85 -137 -125 -9 -22 -8 -35 5
-65 17 -43 10 -55 -33 -55 -12 0 -25 -7 -29 -16 -3 -8 -15 -14 -27 -12 -11 1
-27 -1 -34 -6 -18 -11 -37 8 -72 72 -47 88 -39 137 33 201 24 22 29 36 34 86
5 52 3 62 -16 79 -28 26 -28 86 0 86 4 0 11 -4 14 -10z m-597 -22 c8 -8 6 -17
-8 -36 -18 -22 -20 -41 -20 -169 0 -190 9 -186 -162 -73 -52 35 -100 57 -145
67 -40 9 -19 93 23 93 7 0 30 7 51 16 21 9 52 22 68 29 68 28 111 50 128 67
20 21 48 23 65 6z m411 -28 c18 -17 40 -30 47 -30 8 0 25 -18 40 -39 23 -36
24 -42 12 -67 -19 -39 -43 -52 -68 -36 -11 6 -25 12 -31 12 -16 0 -102 43
-111 55 -5 5 -12 25 -18 44 -24 85 58 123 129 61z m-241 -55 c6 -37 32 -84 58
-104 25 -20 64 -84 64 -107 0 -11 -17 -30 -78 -87 -35 -33 -55 -28 -97 27 -24
32 -25 37 -21 153 1 66 6 125 10 132 12 20 60 9 64 -14z m2678 -18 c22 -19 26
-29 20 -50 -3 -15 -17 -34 -31 -43 -22 -14 -29 -14 -80 0 -47 14 -55 20 -55
41 0 14 10 31 28 43 54 38 81 40 118 9z m272 -72 c17 -6 15 -71 -4 -89 -22
-23 -74 -20 -101 6 -28 27 -29 38 -2 72 18 23 26 26 57 20 21 -3 43 -7 50 -9z
m-2178 -150 c31 -33 31 -78 -1 -104 -29 -25 -24 -25 -79 2 -38 19 -45 27 -48
55 -5 46 20 72 68 72 26 0 43 -7 60 -25z m1900 -15 c11 -11 20 -31 20 -45 0
-25 -31 -65 -50 -65 -6 0 -26 7 -45 14 -27 12 -35 21 -35 41 0 66 66 99 110
55z m-2450 -32 c43 -25 59 -63 40 -97 -15 -29 -61 -27 -99 5 -34 29 -39 58
-15 92 19 27 26 27 74 0z m2085 -358 c-3 -5 -42 -10 -86 -10 -51 0 -78 4 -74
10 3 6 42 10 86 10 51 0 78 -4 74 -10z m625 -268 c0 -15 7 -38 16 -50 12 -17
14 -35 9 -72 -7 -52 -17 -62 -33 -34 -10 18 -45 17 -157 -5 -27 -5 -140 -10
-250 -11 -201 0 -253 6 -405 46 -30 8 -80 17 -110 19 -30 2 -73 8 -95 14 -22
6 -130 10 -240 10 -160 0 -204 -3 -219 -14 -11 -8 -29 -15 -40 -15 -12 0 -30
-7 -40 -15 -11 -8 -27 -15 -35 -15 -9 0 -29 -7 -45 -15 -15 -8 -42 -15 -60
-15 -17 -1 -42 -7 -56 -15 -14 -8 -45 -15 -70 -15 -25 0 -56 -7 -70 -15 -14
-8 -37 -14 -52 -15 -15 0 -29 -4 -33 -9 -3 -5 -31 -13 -63 -17 -31 -3 -65 -11
-75 -16 -10 -5 -51 -11 -90 -13 -40 -2 -121 -7 -182 -11 -60 -4 -173 -8 -250
-9 -77 -1 -171 -5 -210 -9 -84 -8 -226 -35 -240 -46 -5 -4 -31 -11 -58 -14
-26 -4 -59 -14 -75 -22 -15 -7 -40 -14 -55 -14 -36 0 -127 -59 -127 -82 0 -24
46 -24 58 -1 9 16 98 51 133 52 9 1 30 8 45 16 16 8 43 15 61 15 17 0 34 4 38
9 3 6 27 13 53 16 26 3 83 12 127 20 47 9 171 16 301 19 122 2 227 7 234 11 6
4 55 8 109 10 53 1 107 7 118 13 12 7 47 15 79 18 32 4 69 13 83 21 15 7 40
13 57 13 18 0 45 7 60 15 16 8 41 15 55 15 15 0 43 7 62 15 20 8 49 15 64 15
15 0 37 7 47 15 11 8 32 15 46 15 14 0 30 4 35 9 48 46 334 66 528 37 61 -10
126 -22 142 -28 17 -6 58 -14 92 -19 35 -4 72 -13 84 -20 26 -13 323 -27 394
-17 81 10 255 9 255 -2 0 -5 -4 -10 -9 -10 -20 0 -71 -53 -71 -73 0 -34 29
-109 56 -144 21 -28 22 -32 6 -38 -15 -6 -14 -8 7 -24 25 -19 24 -48 -3 -70
-25 -21 -110 -29 -206 -20 -166 16 -191 18 -370 23 -96 3 -224 7 -285 10 -115
5 -195 -2 -330 -29 -139 -27 -179 -34 -230 -34 -27 -1 -68 -8 -90 -16 -22 -8
-57 -14 -77 -15 -20 0 -39 -4 -42 -8 -3 -5 -60 -12 -128 -16 -67 -4 -127 -11
-132 -15 -6 -5 -49 -12 -96 -16 -47 -3 -141 -13 -210 -21 -178 -20 -679 -20
-706 1 -23 17 -145 20 -161 4 -18 -18 -309 -21 -323 -4 -6 8 -26 17 -43 21
-18 3 -41 13 -52 20 -11 8 -27 14 -37 14 -19 0 -118 93 -118 110 0 7 -20 38
-45 70 -25 32 -45 65 -45 74 0 16 127 156 141 156 5 0 20 10 35 23 28 25 73
36 152 36 29 1 63 6 75 13 34 19 306 20 334 2 13 -8 48 -14 85 -14 35 0 104
-7 153 -15 123 -20 402 -20 429 0 13 10 44 15 90 15 39 0 103 7 141 15 39 8
93 15 120 15 98 0 301 31 392 60 51 17 108 30 128 30 25 0 35 4 35 16 0 14 47
15 460 12 341 -3 463 -7 472 -16 15 -15 161 -16 188 -2 11 6 47 13 82 16 71 7
145 29 168 49 20 18 59 34 88 34 18 1 22 -4 22 -27z m-4629 -913 c13 -8 31
-19 39 -25 24 -17 101 -42 152 -49 26 -3 50 -10 53 -14 2 -5 27 -11 54 -15 28
-4 53 -10 55 -15 3 -5 29 -11 58 -15 29 -4 59 -12 66 -19 18 -14 145 -34 347
-52 22 -2 65 -7 95 -10 30 -4 363 -7 740 -8 653 -2 686 -3 713 -21 18 -12 47
-19 85 -20 62 -1 132 -33 132 -60 0 -18 -48 -76 -62 -76 -10 0 -61 -39 -108
-84 -57 -55 -267 -273 -271 -281 -2 -6 -40 -41 -84 -80 -43 -38 -88 -79 -100
-91 -11 -11 -38 -31 -60 -44 -22 -13 -51 -37 -65 -52 -13 -15 -31 -28 -39 -28
-18 0 -61 39 -61 56 0 7 -4 14 -8 16 -4 2 -24 38 -45 80 -34 72 -77 118 -107
118 -12 0 -123 47 -225 95 -51 24 -107 48 -180 78 -43 17 -69 25 -185 57 -41
12 -83 25 -92 31 -10 5 -28 9 -40 9 -13 1 -34 7 -48 15 -14 8 -41 14 -60 15
-19 0 -48 7 -64 15 -15 8 -33 15 -40 15 -6 0 -38 14 -71 30 -33 16 -64 30 -70
30 -5 0 -21 6 -35 14 -14 7 -64 34 -111 59 -48 26 -93 47 -100 47 -8 0 -26 6
-40 14 -14 7 -38 16 -54 20 -58 15 -265 170 -279 209 -8 22 -6 29 14 45 25 21
52 18 101 -9z m4577 -116 c7 -7 19 -13 27 -13 26 0 245 -152 309 -214 24 -24
55 -65 69 -92 13 -27 36 -69 50 -94 55 -98 67 -121 67 -135 0 -7 12 -23 27
-35 21 -16 38 -20 72 -18 l46 3 26 -53 c26 -51 127 -192 159 -222 38 -35 54
-75 55 -134 l0 -58 -70 -67 c-39 -36 -93 -94 -119 -128 -38 -48 -62 -69 -105
-88 -31 -14 -64 -30 -73 -35 -41 -23 -49 -13 -46 48 2 41 -2 66 -13 83 -9 13
-24 57 -33 98 -9 41 -28 92 -41 115 -18 32 -25 63 -30 136 -7 98 -16 125 -96
282 -16 32 -36 90 -45 130 -16 74 -40 123 -81 168 -14 15 -25 44 -30 75 -5 45
-13 58 -76 122 -38 40 -85 83 -103 95 -36 24 -41 37 -23 55 12 12 52 0 77 -24z
m-4670 -26 c31 -24 89 -65 129 -90 84 -55 90 -62 69 -86 -9 -10 -16 -26 -16
-35 0 -10 -7 -32 -15 -50 -8 -17 -19 -81 -25 -141 -5 -61 -16 -148 -25 -195
-26 -138 -34 -225 -34 -412 -1 -155 2 -184 19 -228 11 -28 20 -60 20 -71 0
-22 35 -81 71 -119 35 -37 97 -51 254 -60 150 -9 170 -7 179 15 3 8 8 106 12
217 4 112 11 211 16 221 5 10 9 145 9 300 0 155 3 300 7 321 9 47 31 65 64 49
25 -13 147 -51 323 -104 179 -52 274 -87 372 -134 50 -25 98 -45 105 -45 8 0
23 -7 34 -15 10 -8 25 -15 33 -15 8 0 33 -10 57 -21 35 -18 48 -34 78 -93 20
-39 36 -76 36 -81 0 -12 101 -105 115 -105 9 0 46 30 115 94 14 12 39 31 55
41 43 27 243 220 461 447 65 67 110 108 119 108 4 0 16 12 27 26 27 33 38 18
38 -53 0 -28 5 -55 10 -58 6 -3 10 -28 10 -54 0 -28 13 -82 31 -131 17 -47 40
-121 51 -165 11 -44 30 -100 41 -124 14 -30 22 -75 26 -135 6 -87 7 -91 30
-94 35 -5 110 35 122 66 6 14 10 189 11 409 1 211 5 386 9 389 5 2 16 1 26 -4
10 -6 38 -19 63 -30 25 -12 81 -46 125 -76 44 -31 85 -56 91 -56 6 0 30 -14
52 -30 23 -17 44 -30 46 -30 12 0 105 -67 141 -101 22 -20 71 -58 108 -84 38
-25 98 -74 134 -108 35 -34 70 -64 76 -66 7 -2 29 -19 50 -37 43 -40 76 -43
103 -11 30 34 107 154 149 232 21 39 46 81 56 94 10 13 30 49 45 80 14 31 37
70 50 88 13 17 24 38 24 46 0 8 7 20 15 27 8 7 15 18 15 25 0 7 6 17 13 23 6
6 27 41 46 79 19 37 43 83 54 101 l19 33 24 -22 c13 -12 27 -38 30 -57 5 -25
28 -57 83 -114 64 -67 81 -91 108 -161 18 -45 33 -89 33 -98 0 -9 9 -28 20
-42 12 -14 30 -45 41 -69 11 -24 31 -63 44 -88 13 -25 26 -64 30 -87 3 -24 10
-45 16 -48 12 -8 12 -85 0 -85 -5 0 -12 10 -16 23 -9 32 -35 98 -51 129 -8 14
-14 32 -14 39 0 21 -32 49 -57 49 -15 0 -27 -8 -34 -23 -8 -17 -24 -26 -62
-34 -29 -6 -79 -19 -112 -28 -33 -9 -80 -21 -105 -26 -25 -6 -54 -14 -65 -19
-11 -4 -42 -15 -70 -23 -27 -8 -73 -22 -101 -31 -29 -9 -67 -16 -85 -16 -19
-1 -52 -7 -74 -15 -22 -8 -57 -15 -77 -15 -31 0 -40 -5 -53 -30 -17 -33 -19
-129 -4 -205 6 -27 16 -88 22 -135 l13 -85 49 1 c28 0 88 9 135 18 47 9 114
21 150 26 93 13 284 58 335 79 11 5 32 13 47 19 40 16 197 160 228 209 32 50
36 45 46 -55 4 -47 17 -91 44 -147 46 -98 83 -191 108 -275 23 -77 34 -280 23
-413 -14 -164 -14 -412 0 -438 14 -28 -22 -75 -97 -124 -106 -70 -75 -68 -814
-66 -591 2 -671 0 -720 -14 -61 -19 -129 -27 -365 -45 -88 -6 -175 -18 -193
-26 -23 -10 -76 -14 -185 -14 -84 0 -168 -5 -187 -10 -55 -16 -416 -12 -883
10 -192 9 -275 23 -482 82 l-50 14 1 55 c1 29 7 153 14 274 16 294 17 611 1
710 -6 44 -16 114 -20 155 -8 74 -28 153 -57 218 -8 18 -14 40 -14 48 0 9 -7
28 -15 42 -19 36 -64 167 -76 222 -6 25 -9 92 -7 149 3 91 1 105 -15 115 -15
9 -22 7 -38 -13 -29 -35 -28 -252 2 -337 11 -32 24 -73 28 -90 5 -18 12 -38
17 -45 15 -24 51 -125 84 -239 12 -41 25 -86 30 -100 31 -88 51 -507 31 -630
-6 -36 -13 -164 -15 -286 -1 -121 -6 -226 -10 -232 -3 -6 -28 -14 -54 -17 -26
-3 -55 -11 -66 -16 -60 -34 -113 -39 -358 -39 -140 0 -258 4 -273 10 -14 6
-42 10 -62 10 -19 0 -69 16 -110 35 -41 19 -94 36 -119 38 -24 1 -52 10 -62
18 -10 9 -27 49 -36 90 -10 41 -25 82 -33 91 -10 11 -18 53 -23 130 -9 120
-23 221 -40 277 -5 19 -12 75 -16 125 -4 50 -11 100 -17 111 -16 32 -18 551
-2 594 9 24 15 105 18 246 3 116 10 226 16 245 7 19 16 67 21 105 5 39 12 86
16 106 5 32 3 38 -14 44 -12 3 -30 1 -42 -5 -17 -9 -20 -21 -20 -71 0 -33 -5
-70 -12 -82 -19 -36 -37 -184 -38 -304 0 -61 -7 -165 -15 -230 -12 -92 -15
-188 -12 -423 5 -338 16 -430 71 -575 8 -22 15 -67 16 -100 0 -33 7 -80 16
-104 9 -26 12 -56 9 -73 -5 -19 -2 -35 7 -46 29 -35 50 -88 46 -117 -2 -25 -7
-30 -28 -27 -40 4 -50 23 -65 128 -8 54 -35 180 -59 279 -24 99 -49 221 -56
270 -29 215 -34 786 -9 1100 17 226 52 410 95 513 8 18 14 40 14 49 0 25 59
143 71 143 6 0 36 -19 67 -43z m4944 -59 c92 -55 220 -169 239 -213 5 -11 13
-27 18 -35 5 -8 12 -22 15 -30 3 -8 10 -22 15 -30 5 -8 19 -35 31 -60 11 -25
26 -53 33 -62 9 -13 9 -20 0 -29 -17 -17 -52 0 -59 29 -6 22 -41 90 -85 162
-5 8 -18 35 -30 60 -23 48 -171 200 -195 200 -8 0 -23 9 -34 20 -29 29 -8 24
52 -12z m-4594 -130 c24 -11 73 -37 108 -58 35 -22 76 -42 91 -46 16 -3 43
-13 61 -21 30 -13 33 -18 27 -41 -4 -15 -11 -162 -14 -327 -4 -177 -12 -313
-18 -332 -6 -18 -12 -89 -12 -157 -1 -69 -6 -137 -11 -151 -6 -15 -10 -48 -10
-75 0 -27 -4 -51 -9 -54 -4 -3 -23 -1 -42 5 -19 6 -85 15 -148 19 -112 7 -113
7 -146 41 -38 41 -65 90 -65 119 0 12 -7 35 -16 51 -29 56 -7 582 27 659 7 14
15 70 20 125 9 111 29 218 48 253 13 25 35 23 109 -10z m2630 3 c22 -12 22
-13 20 -279 -1 -199 -5 -273 -15 -292 -9 -17 -13 -60 -12 -134 1 -95 -1 -111
-17 -123 -38 -28 -44 -17 -44 71 0 59 -4 87 -14 95 -14 12 -46 98 -46 125 0
20 26 21 34 1 8 -21 86 -21 86 0 0 8 -12 17 -27 20 -16 4 -44 13 -63 22 l-35
15 28 24 c29 25 52 30 61 15 3 -5 -1 -14 -9 -21 -8 -7 -15 -16 -15 -21 0 -17
27 -9 48 14 29 31 20 63 -20 71 -47 9 -56 8 -79 -15 -28 -28 -46 -18 -58 33
-6 24 -16 57 -22 73 -7 17 -15 57 -19 90 -4 33 -14 90 -23 127 -8 37 -13 77
-10 89 6 21 10 21 118 17 61 -3 121 -10 133 -17z m1895 -564 c9 -23 17 -50 17
-59 0 -9 8 -31 17 -50 30 -60 33 -68 33 -82 0 -13 -38 -51 -135 -133 -28 -23
-61 -51 -74 -63 -13 -11 -34 -20 -46 -20 -13 0 -36 -7 -51 -15 -16 -8 -42 -15
-59 -15 -16 0 -39 -7 -49 -15 -11 -8 -37 -15 -59 -15 -44 0 -173 -22 -300 -51
-48 -11 -91 -17 -96 -15 -5 3 -12 49 -16 102 -4 53 -13 112 -21 130 -17 39
-18 88 -4 115 8 14 21 19 50 19 22 0 59 4 82 9 24 6 66 14 93 20 116 23 216
51 258 73 10 5 41 12 68 15 27 3 52 10 55 14 3 5 13 9 23 9 31 0 149 41 162
56 19 24 33 16 52 -29z"/>
<path d="M4368 7113 c-20 -2 -42 -11 -48 -19 -7 -8 -23 -14 -36 -14 -13 0 -48
-20 -78 -45 -51 -41 -86 -56 -86 -37 0 4 -21 24 -47 43 -76 57 -154 64 -262
27 -55 -20 -73 -33 -132 -98 -39 -43 -69 -84 -69 -96 0 -11 -9 -29 -20 -39
-11 -10 -19 -25 -18 -34 2 -9 -3 -15 -12 -14 -12 2 -16 -11 -18 -59 -1 -34 -7
-67 -12 -73 -6 -7 -14 -32 -20 -56 -28 -129 -35 -144 -84 -192 -55 -55 -56
-79 -5 -126 42 -38 86 -50 149 -40 43 7 58 15 86 46 34 39 43 63 23 63 -11 0
-10 12 23 150 10 47 26 95 34 107 8 12 14 29 14 38 0 9 16 37 35 62 23 30 33
53 29 65 -3 11 0 20 10 24 9 3 16 16 16 29 0 25 28 38 53 24 10 -6 18 -5 22 1
3 5 10 10 15 10 12 0 73 -122 89 -180 26 -90 44 -121 88 -151 32 -23 47 -27
60 -20 60 32 126 156 125 231 0 47 21 93 67 143 27 29 55 29 78 -2 11 -15 12
-14 13 2 0 19 35 24 46 6 4 -7 9 -46 11 -88 4 -82 18 -150 40 -194 7 -15 17
-59 21 -99 7 -70 8 -73 50 -105 43 -33 79 -37 107 -12 5 5 19 9 31 9 13 0 29
7 38 15 8 8 21 15 28 15 13 0 38 43 38 67 0 24 -23 63 -41 68 -32 10 -49 35
-49 69 0 18 -7 47 -16 64 -8 18 -13 36 -9 42 3 5 -3 30 -15 54 -11 25 -20 58
-20 75 0 16 -4 33 -10 36 -5 3 -21 29 -35 58 -32 64 -57 91 -114 128 -46 30
-76 33 -183 22z m188 -91 c41 -37 58 -63 83 -126 17 -43 31 -92 31 -108 0 -16
7 -45 16 -66 9 -20 20 -71 23 -112 l6 -75 58 -3 c58 -3 59 -3 52 -30 -4 -15
-7 -27 -8 -28 -1 0 -14 -7 -28 -16 -30 -19 -127 -33 -158 -23 -25 8 -30 65 -6
85 17 14 20 46 5 55 -26 16 -51 94 -56 170 -6 106 -23 187 -42 203 -10 7 -49
12 -108 12 -101 0 -111 -4 -135 -62 -7 -18 -24 -48 -36 -67 -18 -26 -23 -48
-23 -95 0 -50 -5 -69 -25 -96 -17 -22 -23 -41 -19 -56 5 -19 0 -26 -21 -36
-24 -11 -29 -10 -45 9 -10 12 -21 47 -25 78 -3 31 -17 77 -29 103 -13 26 -32
67 -41 92 -22 53 -81 120 -108 120 -56 0 -147 -88 -147 -142 0 -13 -5 -29 -11
-35 -14 -14 -26 -36 -58 -100 -13 -26 -28 -57 -34 -68 -6 -11 -14 -38 -18 -60
-19 -107 -31 -150 -46 -167 -16 -18 -16 -19 5 -25 16 -4 22 -13 22 -34 l0 -29
-79 0 c-44 0 -86 -3 -95 -6 -18 -7 -31 34 -22 70 5 20 13 25 43 28 37 3 38 4
55 68 19 69 29 109 51 205 34 145 167 353 228 355 8 0 24 7 35 15 11 9 42 14
77 15 50 0 64 -4 102 -32 43 -33 95 -116 95 -155 1 -72 35 -85 42 -15 8 80 45
140 108 175 67 37 130 55 190 56 40 1 51 -4 96 -47z"/>
<path d="M3339 2243 c-15 -2 -39 -17 -54 -33 -24 -25 -27 -37 -32 -115 -4 -86
-4 -87 19 -83 22 3 23 6 19 84 -3 78 -2 82 24 102 35 27 85 28 118 2 14 -11
33 -20 42 -20 9 0 19 9 22 20 4 15 14 20 37 20 17 0 36 -4 42 -8 17 -11 42
-72 49 -119 7 -47 54 -97 80 -87 21 8 19 15 -14 47 -16 16 -31 43 -34 63 -8
49 -29 94 -45 94 -7 0 -15 7 -18 15 -7 18 -104 21 -122 3 -9 -9 -16 -8 -30 5
-18 16 -46 19 -103 10z"/>
<path d="M3527 2152 c-34 -7 -41 -61 -21 -159 4 -20 7 -21 32 -11 50 22 56 32
38 69 -9 17 -16 44 -16 58 0 34 -11 48 -33 43z"/>
<path d="M3357 2144 c-9 -10 4 -106 19 -136 8 -15 11 -34 8 -42 -7 -17 12 -21
33 -8 13 8 21 161 9 180 -7 12 -58 17 -69 6z"/>
<path d="M3286 1951 c-3 -4 6 -13 20 -20 20 -9 30 -9 41 1 13 10 13 13 -4 19
-25 10 -51 11 -57 0z"/>
<path d="M4095 1952 c-11 -2 -27 -10 -35 -17 -25 -20 -82 -46 -130 -57 -25 -5
-146 -13 -270 -17 -140 -5 -233 -12 -247 -19 -12 -7 -60 -12 -107 -12 -112 0
-116 -4 -116 -123 0 -51 5 -110 10 -132 6 -22 15 -61 20 -87 5 -25 27 -76 50
-112 22 -37 40 -71 40 -76 0 -6 19 -31 43 -56 49 -53 152 -114 211 -125 44 -8
211 6 236 20 9 5 40 12 70 16 86 11 139 32 189 76 89 79 86 64 86 401 0 318
-2 331 -50 320z m5 -317 c0 -194 -3 -264 -14 -288 -7 -18 -38 -54 -67 -80 -45
-40 -60 -47 -95 -47 -23 0 -58 -7 -77 -15 -20 -8 -51 -15 -69 -15 -18 0 -51
-7 -73 -15 -67 -24 -127 -19 -194 16 -68 36 -137 98 -157 143 -8 17 -23 45
-34 61 -57 89 -71 148 -74 305 l-1 85 100 1 c55 1 147 7 205 13 58 7 171 13
251 14 118 3 152 6 172 20 15 9 31 17 38 17 6 0 22 9 36 20 53 41 53 41 53
-235z"/>
<path d="M3599 1704 c-17 -20 3 -58 43 -82 25 -15 28 -15 47 3 42 37 14 95
-46 95 -17 0 -37 -7 -44 -16z"/>
<path d="M3627 1944 c-13 -13 -7 -24 14 -24 11 0 19 5 17 12 -5 14 -22 21 -31
12z"/>
<path d="M4513 3008 c-39 -43 -45 -65 -28 -97 18 -35 71 -56 121 -47 l34 7 0
64 c0 55 -3 66 -22 79 -33 23 -81 20 -105 -6z m97 -62 c0 -74 -36 -68 -38 7
-1 31 2 37 18 37 17 0 20 -7 20 -44z m-58 -21 c2 -12 -3 -21 -14 -23 -13 -3
-18 3 -18 21 0 43 24 45 32 2z"/>
<path d="M6302 2459 l-24 -9 21 -26 c12 -15 21 -33 21 -40 0 -8 7 -14 16 -14
12 0 15 6 10 23 -3 12 -6 34 -6 50 0 29 -3 31 -38 16z"/>
<path d="M6200 2385 c0 -19 -4 -35 -9 -35 -24 0 -20 -35 7 -64 16 -17 32 -39
35 -48 4 -10 14 -18 23 -18 11 0 14 5 9 18 -4 9 -11 44 -15 77 -12 82 -20 105
-36 105 -9 0 -14 -12 -14 -35z"/>
<path d="M6114 2401 c3 -5 15 -7 26 -4 28 7 25 13 -6 13 -14 0 -23 -4 -20 -9z"/>
<path d="M6418 2376 c-3 -14 -1 -31 3 -38 6 -8 9 1 9 25 0 42 -6 48 -12 13z"/>
<path d="M6040 2380 c0 -5 9 -10 20 -10 11 0 20 5 20 10 0 6 -9 10 -20 10 -11
0 -20 -4 -20 -10z"/>
<path d="M6475 2380 c-3 -5 3 -10 14 -10 11 0 23 5 26 10 3 6 -3 10 -14 10
-11 0 -23 -4 -26 -10z"/>
<path d="M5965 2363 c-34 -8 -39 -22 -11 -29 32 -8 56 1 56 21 0 15 -8 17 -45
8z"/>
<path d="M5840 2322 c0 -4 10 -13 21 -21 18 -10 23 -10 30 0 4 7 5 17 3 21 -7
10 -54 11 -54 0z"/>
<path d="M6057 2302 c-21 -23 -21 -42 -3 -68 15 -19 15 -19 36 2 17 17 21 28
15 53 -7 35 -24 40 -48 13z"/>
<path d="M6386 2281 c-3 -5 -21 -12 -40 -15 -19 -4 -37 -13 -40 -21 -4 -12 0
-14 22 -9 28 8 102 43 102 50 0 8 -39 4 -44 -5z"/>
<path d="M5806 2263 c-8 -8 -8 -71 0 -100 12 -43 24 -23 24 36 0 56 -9 79 -24
64z"/>
<path d="M5927 2252 c-14 -16 -15 -22 -4 -45 6 -15 17 -25 22 -24 13 5 18 53
8 72 -8 14 -11 14 -26 -3z"/>
<path d="M6001 2198 c-1 -9 3 -19 9 -23 14 -8 0 -35 -18 -35 -8 0 -13 -2 -10
-5 7 -7 118 18 118 27 0 4 -17 8 -38 8 -30 0 -41 5 -50 23 -8 17 -11 18 -11 5z"/>
<path d="M6165 2200 c-8 -13 20 -24 41 -16 20 8 9 26 -16 26 -10 0 -22 -5 -25
-10z"/>
<path d="M6120 2184 c0 -17 22 -14 28 4 2 7 -3 12 -12 12 -9 0 -16 -7 -16 -16z"/>
<path d="M1650 4833 c0 -36 3 -64 6 -60 11 10 14 127 4 127 -6 0 -10 -30 -10
-67z"/>
<path d="M3430 4770 c-11 -7 -6 -10 20 -10 26 0 31 3 20 10 -8 5 -17 10 -20
10 -3 0 -12 -5 -20 -10z"/>
<path d="M3510 4740 c0 -5 12 -10 26 -10 14 0 23 4 19 10 -3 6 -15 10 -26 10
-10 0 -19 -4 -19 -10z"/>
<path d="M4310 4740 c0 -5 6 -10 14 -10 8 0 18 5 21 10 3 6 -3 10 -14 10 -12
0 -21 -4 -21 -10z"/>
<path d="M1650 4709 c0 -11 5 -17 10 -14 6 3 10 13 10 21 0 8 -4 14 -10 14 -5
0 -10 -9 -10 -21z"/>
<path d="M4238 4724 c-4 -3 -57 -12 -120 -20 -87 -11 -118 -11 -135 -3 -17 9
-26 9 -37 0 -8 -7 -27 -16 -43 -21 -32 -9 3 -12 172 -12 92 0 195 26 203 50 4
12 -30 17 -40 6z"/>
<path d="M3621 4711 c-11 -7 -5 -11 23 -16 33 -7 56 -2 45 9 -11 11 -55 15
-68 7z"/>
<path d="M5346 3723 c-4 -4 -33 -11 -64 -15 -76 -10 -206 -34 -265 -50 -30 -8
-49 -19 -53 -31 -10 -32 11 -42 49 -23 19 9 49 16 67 16 17 0 41 5 53 12 21
11 51 18 162 38 28 5 119 9 203 9 153 1 153 1 150 24 -3 22 -6 22 -149 25 -80
1 -149 -1 -153 -5z"/>
<path d="M2501 3681 c-13 -8 -12 -15 4 -50 10 -22 25 -47 34 -54 18 -16 68
-27 88 -20 31 12 0 55 -49 67 -17 4 -30 16 -36 36 -12 32 -18 35 -41 21z"/>
<path d="M5208 3593 c-30 -5 -61 -44 -52 -67 9 -23 41 -20 49 4 4 13 15 20 31
20 14 0 35 5 46 11 21 11 21 12 3 25 -19 14 -26 15 -77 7z"/>
<path d="M5443 3593 c-18 -7 -16 -30 3 -37 45 -17 97 7 72 32 -12 12 -52 15
-75 5z"/>
<path d="M5593 3593 c-20 -8 -15 -31 8 -38 25 -8 44 7 36 29 -6 16 -21 19 -44
9z"/>
<path d="M5346 3521 c-23 -25 -17 -57 9 -53 40 7 59 63 24 70 -8 1 -23 -6 -33
-17z"/>
<path d="M5797 3459 c-10 -6 -53 -13 -95 -16 -42 -3 -85 -10 -96 -15 -23 -12
-344 -29 -651 -33 -126 -2 -252 -6 -278 -9 -33 -4 -56 -1 -70 9 -17 10 -84 15
-292 19 -148 3 -299 9 -335 15 -65 10 -1098 17 -1107 7 -3 -3 -3 -12 0 -20 5
-13 70 -15 479 -16 260 -1 496 -3 523 -5 28 -2 185 -9 350 -15 165 -6 325 -13
355 -17 67 -9 565 -9 675 -1 44 3 145 9 225 13 79 3 169 13 199 21 30 8 69 14
86 14 16 1 41 7 55 15 14 8 44 14 67 15 47 0 73 8 73 21 0 13 -141 11 -163 -2z"/>
<path d="M8044 2748 c-32 -22 -84 -65 -115 -96 -31 -31 -88 -86 -127 -122 -40
-36 -72 -70 -72 -76 0 -6 -7 -17 -15 -24 -8 -7 -15 -20 -15 -29 0 -9 -6 -23
-12 -29 -7 -7 -18 -35 -24 -62 -14 -61 0 -132 34 -174 12 -16 22 -37 22 -47 0
-30 48 -78 85 -85 19 -3 39 -12 46 -20 9 -10 40 -14 125 -14 l113 0 161 120
c88 66 163 120 165 120 16 0 65 46 65 61 0 9 7 22 15 29 19 16 19 67 0 100 -8
14 -15 43 -15 65 -1 43 -15 56 -179 168 -31 22 -81 62 -112 91 -31 29 -62 55
-70 58 -9 3 -42 -12 -75 -34z m61 -164 c38 -25 30 -51 -32 -116 -32 -32 -61
-65 -66 -73 -4 -8 -16 -15 -27 -15 -25 0 -54 -30 -41 -43 18 -18 96 2 134 36
74 65 103 85 135 92 23 5 32 11 28 21 -11 29 37 13 70 -23 37 -40 42 -68 19
-99 -8 -10 -15 -26 -15 -34 0 -16 -43 -40 -72 -40 -10 0 -18 -4 -18 -10 0 -5
7 -10 15 -10 16 0 19 -9 9 -34 -9 -24 -44 -20 -44 4 0 11 -6 20 -14 20 -21 0
-29 -17 -11 -24 26 -9 17 -30 -30 -69 -59 -50 -103 -67 -168 -67 -95 0 -116 8
-148 58 -16 25 -32 60 -35 78 -7 40 12 104 32 104 7 0 16 12 20 28 12 54 40
94 89 125 28 17 52 36 54 42 8 18 63 65 77 65 8 0 26 -7 39 -16z m75 -23 c11
-21 2 -52 -23 -83 -19 -24 -27 -23 -27 2 0 11 7 23 16 27 12 4 14 14 9 39 -7
38 8 46 25 15z"/>
<path d="M7712 1940 c-15 -14 -22 -33 -22 -56 0 -24 -13 -54 -46 -103 -42 -61
-52 -70 -85 -75 -30 -5 -39 -11 -39 -26 0 -15 7 -20 25 -20 16 0 25 -6 25 -15
0 -8 7 -15 15 -15 8 0 15 -7 15 -15 0 -8 -6 -15 -14 -15 -13 0 -26 -20 -26
-41 0 -5 11 -9 25 -9 14 0 25 5 25 12 0 6 3 8 6 5 4 -4 -1 -18 -10 -31 -20
-31 -20 -52 -1 -60 24 -9 18 -61 -11 -95 -25 -30 -64 -42 -64 -21 0 6 -6 10
-12 10 -7 1 -28 21 -46 45 -19 27 -41 45 -52 45 -31 0 -25 -41 10 -75 17 -16
30 -39 30 -52 0 -13 5 -23 10 -23 6 0 10 6 10 14 0 32 30 22 80 -25 47 -44 56
-49 99 -49 39 0 52 5 76 30 l29 30 -18 74 c-10 41 -23 80 -31 86 -7 6 -16 27
-20 48 -9 47 -30 88 -50 95 -20 8 -21 67 0 67 7 0 18 -8 24 -17 8 -16 13 -16
48 -4 21 7 45 23 54 34 15 18 15 25 3 60 -8 22 -14 50 -14 63 0 12 -5 26 -11
29 -5 4 -15 19 -20 33 -8 20 -7 28 6 34 15 9 21 48 7 48 -5 0 -18 -9 -30 -20z"/>
<path d="M7477 1622 c-15 -15 -27 -38 -27 -49 0 -13 -8 -24 -20 -28 -11 -4
-20 -15 -20 -27 0 -28 11 -21 81 47 44 43 57 61 45 63 -9 2 -16 8 -16 13 0 16
-16 10 -43 -19z"/>
<path d="M7346 1423 c-4 -18 -16 -35 -27 -38 -25 -8 -25 -25 1 -18 29 8 42 28
38 60 l-4 28 -8 -32z"/>
<path d="M7480 1285 c0 -9 -7 -18 -16 -22 -12 -4 -14 -14 -9 -42 4 -25 1 -42
-9 -56 -9 -11 -16 -28 -16 -37 0 -23 -16 -31 -45 -24 -18 5 -27 17 -35 46 -11
41 -26 50 -48 28 -16 -16 -16 5 0 31 17 28 -24 83 -61 79 -34 -4 -42 -49 -13
-70 11 -7 22 -27 26 -45 4 -19 21 -43 41 -59 37 -30 47 -47 39 -68 -8 -21 -67
7 -121 57 -22 22 -46 37 -51 33 -5 -3 -12 1 -16 9 -4 11 2 15 19 15 27 0 34
17 10 26 -9 4 -15 19 -15 35 0 31 -14 39 -23 14 -5 -13 -79 -65 -92 -65 -3 0
-10 12 -15 26 -14 37 -46 28 -42 -11 5 -39 21 -57 46 -52 16 4 37 -13 91 -72
57 -63 79 -80 120 -94 65 -21 107 -27 133 -20 26 6 38 53 22 84 -10 17 -9 24
5 38 15 15 17 15 31 -4 12 -16 26 -20 77 -20 l62 0 3 61 c2 45 -1 64 -13 74
-8 7 -15 21 -15 31 0 11 -9 27 -20 36 -11 10 -20 25 -20 35 0 10 -7 18 -15 18
-8 0 -15 -7 -15 -15z"/>
<path d="M1977 103 c-13 -12 -7 -81 8 -93 28 -23 45 -4 45 50 0 46 -2 50 -23
50 -13 0 -27 -3 -30 -7z"/>
<path d="M2270 40 c0 -36 3 -40 25 -40 18 0 26 7 31 25 9 36 -2 55 -31 55 -23
0 -25 -4 -25 -40z"/>
<path d="M4700 10 c0 -5 14 -10 30 -10 17 0 30 5 30 10 0 6 -13 10 -30 10 -16
0 -30 -4 -30 -10z"/>
</g>
</svg>
