<svg width="28" height="28" viewBox="0 0 28 28" fill="none" xmlns="http://www.w3.org/2000/svg">
<circle cx="14" cy="14" r="14" fill="#313042"/>
<path d="M11.1125 20.58C11.2574 20.2566 11.4177 19.9451 11.529 19.6175C11.5619 19.5209 11.4849 19.3571 11.4114 19.2577C10.8234 18.4646 10.6078 17.5882 10.7919 16.6159C10.8076 16.5359 10.8296 16.4572 10.8577 16.3807C10.8833 16.3283 10.9131 16.278 10.9466 16.2302C11.6753 16.9344 11.8671 17.8066 11.9385 18.7607C12.1688 18.3407 12.411 17.9207 12.6175 17.4846C12.6525 17.4111 12.5538 17.255 12.4887 17.1556C11.8944 16.2456 11.7642 15.2859 12.1485 14.182C12.8695 14.9051 13.0305 15.7577 13.0886 16.6957C13.3427 16.3156 13.6059 15.9411 13.8432 15.5505C13.881 15.4882 13.8159 15.3538 13.7809 15.2586C13.4421 14.3304 13.4848 13.4288 13.9608 12.5559C14.014 12.4579 14.0875 12.3711 14.1785 12.2395C14.6342 13.027 14.6251 13.8131 14.4515 14.6195L14.5551 14.6678C14.7182 14.3878 14.9352 14.1316 15.0339 13.8334C15.3937 12.7407 16.0706 11.9434 17.1136 11.4618C17.2739 11.4005 17.4375 11.3481 17.6036 11.305C17.5841 11.4675 17.5545 11.6286 17.5147 11.7873C17.1752 12.8303 16.5158 13.6115 15.512 14.0455C15.078 14.2338 14.8449 14.5586 14.602 14.9338C15.407 14.5838 16.2183 14.3605 17.1605 14.6797C16.9827 14.8442 16.8553 14.9912 16.7013 15.0997C16.002 15.61 15.2159 15.82 14.3577 15.673C14.105 15.6296 13.9713 15.6996 13.8467 15.9033C13.6367 16.2498 13.4057 16.5844 13.2027 16.9701C14.1043 16.5963 15.001 16.4101 16.0321 16.8427C15.7486 17.0373 15.5421 17.2165 15.3055 17.3327C14.6338 17.6778 13.8585 17.7632 13.1278 17.5728C12.9241 17.521 12.8072 17.5406 12.7078 17.738C12.4978 18.1636 12.2626 18.578 12.0575 19.0449C12.9521 18.6088 13.853 18.3603 14.8127 18.7082L14.9296 18.858C14.8071 18.918 14.6882 18.9848 14.5733 19.0582C13.8215 19.5895 12.9955 19.8023 12.0883 19.6182C11.8412 19.5671 11.7257 19.6357 11.6389 19.8583C11.3344 20.6409 11.0264 21.4221 10.7016 22.1963C10.5672 22.5176 10.3852 22.8186 10.2305 23.1322C10.1157 23.3639 9.9771 23.4122 9.7307 23.2869C7.0189 21.924 5.1751 19.8156 4.3862 16.8784C2.9764 11.6284 5.9066 6.3084 11.1104 4.739C17.1577 2.9134 22.9964 6.9468 23.87 12.7778C24.57 17.4629 21.91 21.973 17.5168 23.6019C17.2662 23.6943 17.0268 23.8168 16.7825 23.5522C16.5382 23.2876 16.6082 23.037 16.7125 22.7451C17.0625 21.7469 17.4125 20.7459 17.7303 19.7351C17.9249 19.1191 18.1013 18.9532 18.7586 18.8951C19.3515 18.844 19.9444 18.7915 20.5324 18.7075C21.0672 18.6312 21.2282 18.4233 21.2324 17.8857C21.2435 17.7449 21.2329 17.6033 21.2009 17.4657C21.1253 17.2221 21.1953 17.0331 21.3591 16.8609C21.5229 16.6887 21.5565 16.5424 21.3689 16.3492C21.3087 16.2869 21.3094 16.0615 21.3689 16.0041C21.5908 15.7941 21.5607 15.5911 21.4116 15.3811C21.2534 15.1585 21.3003 15.0059 21.5208 14.8645C21.6765 14.7604 21.823 14.6433 21.959 14.5145C22.2215 14.2723 22.1984 14.1169 21.9177 13.8999C21.4683 13.5499 21.0231 13.1999 20.5919 12.8275C20.3119 12.5888 20.2272 12.2675 20.3189 11.9063C20.468 11.3211 20.2944 10.8143 19.9892 10.3124C19.7333 9.88515 19.5096 9.43942 19.32 8.9789C19.0225 8.2649 18.55 7.7455 17.7898 7.5642C17.0772 7.3948 16.352 7.2765 15.6296 7.1533C15.1396 7.0686 14.637 7.0252 14.1435 6.9433C12.8037 6.7256 11.6389 7.0924 10.5966 7.9436C10.2875 8.18983 9.95343 8.40287 9.5998 8.5792C9.31502 8.71109 9.08508 8.93806 8.9495 9.2211C8.81961 9.47636 8.62689 9.69437 8.3895 9.8546C7.861 10.2046 7.3395 10.5343 6.9825 11.088C6.8656 11.2707 6.6283 11.382 6.4351 11.508C5.88 11.8734 5.6889 12.3144 5.8961 12.95C6.03108 13.3464 6.05313 13.7724 5.9598 14.1806C5.89771 14.5115 5.88944 14.8502 5.9353 15.1837C5.9843 15.6219 6.2517 15.9369 6.6647 16.0937C6.9755 16.2106 7.1295 16.4129 7.1743 16.7349C7.2359 17.1773 7.4578 17.5154 7.7847 17.8374C8.08844 18.1542 8.33225 18.5235 8.5043 18.9273C8.7199 19.4054 9.0076 19.7351 9.5158 19.9122C9.9974 20.0795 10.4517 20.3266 10.9158 20.5359C10.9801 20.5557 11.0459 20.5704 11.1125 20.58Z" fill="#00DACC"/>
</svg>
