<svg width="28" height="28" viewBox="0 0 28 28" fill="none" xmlns="http://www.w3.org/2000/svg">
<path d="M0 14C0 6.26801 6.26801 0 14 0C21.732 0 28 6.26801 28 14C28 21.732 21.732 28 14 28C6.26801 28 0 21.732 0 14Z" fill="url(#paint0_linear_613_92)"/>
<path d="M4.57891 15.0646C4.60241 15.0294 4.62395 14.9931 4.64941 14.9594C4.67756 14.9196 4.71365 14.8862 4.75541 14.8612C4.79717 14.8362 4.84368 14.8201 4.89197 14.8141C4.94027 14.808 4.9893 14.812 5.03596 14.8259C5.08261 14.8398 5.12587 14.8632 5.16298 14.8947C5.20045 14.9261 5.23114 14.9648 5.2532 15.0084C5.27526 15.052 5.28822 15.0996 5.29128 15.1484C5.29435 15.1972 5.28747 15.2461 5.27105 15.2921C5.25463 15.3381 5.22902 15.3803 5.19578 15.4161C5.1612 15.4529 5.11923 15.4819 5.07263 15.5012C5.02603 15.5205 4.97586 15.5297 4.92544 15.5282C4.87501 15.5268 4.82547 15.5146 4.78009 15.4926C4.7347 15.4706 4.6945 15.4392 4.66214 15.4005C4.63129 15.3642 4.60535 15.3231 4.57695 15.2844L4.57891 15.0646Z" fill="#E0157B"/>
<path d="M15.7349 12.1629H10.3153C9.95547 12.1629 9.87469 12.0816 9.88301 11.7189C9.93197 8.94197 11.9882 6.53765 14.7245 6.09115C16.787 5.75481 18.5667 6.35063 20.0119 7.85608C20.9793 8.86314 21.4978 10.0886 21.5825 11.4892C21.5898 11.6048 21.6069 11.7208 21.603 11.8359C21.5957 12.0395 21.485 12.1467 21.2819 12.1619C21.2329 12.1653 21.1839 12.1619 21.135 12.1619L15.7349 12.1629Z" fill="#53CAC7"/>
<path d="M15.7379 13.9078H9.14277C9.08158 13.9078 9.02038 13.9078 8.95967 13.9078C8.75356 13.8945 8.61354 13.7516 8.61207 13.5567C8.6106 13.3619 8.75258 13.214 8.95478 13.1993C9.01548 13.194 9.07668 13.1969 9.13788 13.1969H22.3428C22.416 13.1939 22.4892 13.196 22.5621 13.2033C22.6466 13.2168 22.7234 13.2604 22.7782 13.3261C22.8331 13.3918 22.8623 13.4751 22.8605 13.5607C22.8587 13.6463 22.8261 13.7283 22.7685 13.7916C22.711 13.855 22.6324 13.8954 22.5474 13.9053C22.4865 13.9098 22.4254 13.9111 22.3643 13.9092L15.7379 13.9078Z" fill="#E0147B"/>
<path d="M14.9428 16.4257H20.7805C20.8414 16.4231 20.9025 16.4248 20.9631 16.4306C21.0455 16.4424 21.1213 16.4822 21.1778 16.5432C21.2343 16.6043 21.2681 16.6829 21.2735 16.7659C21.2755 16.8489 21.2495 16.93 21.1998 16.9965C21.1501 17.0629 21.0795 17.1106 20.9994 17.1321C20.9276 17.1457 20.8545 17.151 20.7815 17.1478C16.8887 17.1478 12.9961 17.1478 9.10359 17.1478C9.04874 17.1501 8.9938 17.1489 8.9391 17.1444C8.84722 17.1331 8.76277 17.0882 8.70209 17.0183C8.64142 16.9484 8.60881 16.8585 8.61059 16.7659C8.6165 16.6768 8.65499 16.593 8.71873 16.5304C8.78248 16.4678 8.86701 16.4309 8.95623 16.4266C9.01057 16.4222 9.0659 16.4266 9.12073 16.4266L14.9428 16.4257Z" fill="#E0147B"/>
<path d="M11.173 14.8095C12.7971 14.8095 14.4211 14.8095 16.0448 14.8095C16.366 14.8095 16.5511 15.0387 16.4448 15.2991C16.4222 15.3597 16.3832 15.4128 16.3322 15.4525C16.2812 15.4923 16.2202 15.5171 16.156 15.5243C16.0953 15.5307 16.0343 15.5327 15.9734 15.5302C12.7683 15.5302 9.56298 15.5302 6.35755 15.5302C6.27856 15.5331 6.1995 15.5265 6.12206 15.5106C6.04209 15.4892 5.97204 15.4407 5.92396 15.3733C5.87587 15.3059 5.85273 15.2239 5.85852 15.1413C5.86432 15.0588 5.89867 14.9808 5.95569 14.9208C6.01271 14.8608 6.08885 14.8225 6.17102 14.8125C6.23192 14.8075 6.29307 14.8062 6.35412 14.8086L11.173 14.8095Z" fill="#E0147B"/>
<path d="M18.0428 18.0422H22.8407C22.8833 18.0422 22.9263 18.0398 22.9689 18.0422C23.1751 18.0584 23.3219 18.2004 23.3288 18.3884C23.3356 18.5764 23.1775 18.7404 22.9719 18.7599C22.9175 18.7653 22.8622 18.7624 22.8074 18.7624H13.1402C12.8768 18.7585 12.7054 18.6106 12.7098 18.3918C12.7142 18.1729 12.8748 18.0417 13.1367 18.0417C14.7729 18.0414 16.4083 18.0416 18.0428 18.0422Z" fill="#E0147B"/>
<path d="M18.0966 20.3761C17.1013 20.3761 16.106 20.3761 15.1102 20.3761C14.9516 20.3761 14.8194 20.3315 14.7328 20.1964C14.7034 20.1497 14.6856 20.0966 14.6809 20.0417C14.6762 19.9867 14.6846 19.9314 14.7056 19.8804C14.7266 19.8294 14.7595 19.7841 14.8015 19.7484C14.8435 19.7127 14.8935 19.6875 14.9472 19.675C15.0252 19.6607 15.1044 19.6549 15.1837 19.6578H21.0096C21.0459 19.6578 21.0826 19.6578 21.1193 19.6578C21.3484 19.672 21.5012 19.8209 21.4953 20.0226C21.4894 20.2243 21.323 20.3726 21.1007 20.3731C20.264 20.3761 19.4278 20.3731 18.5911 20.3731L18.0966 20.3761Z" fill="#E0147B"/>
<path d="M14.3631 21.2788H17.3275C17.6051 21.2788 17.7637 21.4086 17.7633 21.6328C17.7633 21.8472 17.5846 21.999 17.3251 21.999C15.3491 21.999 13.373 21.999 11.3968 21.999C11.3302 22.0033 11.2634 21.9935 11.201 21.9701C11.0208 21.8918 10.9273 21.7385 10.9591 21.5657C10.9909 21.3929 11.1251 21.2798 11.3273 21.2793C12.0895 21.2769 12.8523 21.2793 13.6146 21.2793L14.3631 21.2788Z" fill="#E0147B"/>
<path d="M9.2862 18.0422C10.0313 18.0422 10.7762 18.0422 11.5206 18.0422C11.5877 18.0412 11.6547 18.0461 11.7209 18.0569C11.8873 18.0868 11.9735 18.1989 11.9945 18.3585C12.006 18.4286 11.9944 18.5004 11.9614 18.5633C11.9285 18.6261 11.876 18.6766 11.8119 18.7071C11.7301 18.7486 11.6388 18.768 11.5471 18.7634H7.02337C6.93152 18.7699 6.83959 18.7518 6.75704 18.711C6.61604 18.6317 6.54016 18.5108 6.56708 18.3477C6.57466 18.274 6.60683 18.2049 6.65842 18.1516C6.71001 18.0983 6.77803 18.0639 6.85153 18.054C6.91178 18.0448 6.97273 18.0411 7.03365 18.0427L9.2862 18.0422Z" fill="#E0147B"/>
<path d="M7.68576 17.1473C7.61435 17.1463 7.54483 17.1242 7.48601 17.0836C7.4272 17.0431 7.38173 16.9861 7.35537 16.9197C7.32901 16.8533 7.32294 16.7806 7.33794 16.7108C7.35293 16.6409 7.38831 16.5771 7.4396 16.5274C7.49088 16.4777 7.55577 16.4443 7.62603 16.4315C7.6963 16.4187 7.76878 16.4271 7.8343 16.4555C7.89983 16.4839 7.95544 16.5311 7.9941 16.5912C8.03276 16.6513 8.05273 16.7214 8.05148 16.7928C8.04759 16.8875 8.00747 16.9771 7.93941 17.0431C7.87135 17.1091 7.78054 17.1464 7.68576 17.1473Z" fill="#E0167C"/>
<path d="M8.05148 13.5597C8.04669 13.6539 8.00513 13.7425 7.93574 13.8064C7.86635 13.8703 7.77465 13.9045 7.68035 13.9015C7.58605 13.8986 7.49667 13.8587 7.4314 13.7906C7.36614 13.7225 7.3302 13.6315 7.33131 13.5371C7.3361 13.4429 7.37765 13.3543 7.44705 13.2904C7.51644 13.2265 7.60814 13.1923 7.70244 13.1953C7.79674 13.1982 7.88612 13.238 7.95138 13.3062C8.01664 13.3743 8.05258 13.4653 8.05148 13.5597Z" fill="#E0157C"/>
<path d="M14.1174 20.0192C14.1168 20.066 14.1071 20.1122 14.0886 20.1553C14.0702 20.1983 14.0435 20.2373 14.01 20.27C13.9765 20.3027 13.9369 20.3285 13.8935 20.3459C13.85 20.3633 13.8036 20.372 13.7568 20.3714C13.71 20.3709 13.6637 20.3611 13.6207 20.3427C13.5777 20.3243 13.5387 20.2976 13.506 20.2641C13.4733 20.2306 13.4475 20.191 13.4301 20.1476C13.4127 20.1041 13.404 20.0577 13.4045 20.0109C13.4073 19.9185 13.4454 19.8307 13.511 19.7657C13.5766 19.7006 13.6647 19.6633 13.757 19.6613C13.8044 19.6604 13.8515 19.669 13.8954 19.6866C13.9394 19.7042 13.9794 19.7305 14.013 19.7639C14.0466 19.7973 14.0732 19.8371 14.0911 19.8809C14.109 19.9248 14.118 19.9718 14.1174 20.0192Z" fill="#E0157B"/>
<path d="M10.3912 21.6328C10.3912 21.6799 10.3819 21.7266 10.3639 21.7701C10.3458 21.8137 10.3194 21.8532 10.2861 21.8866C10.2528 21.9199 10.2132 21.9463 10.1697 21.9644C10.1261 21.9824 10.0794 21.9917 10.0323 21.9917C9.9852 21.9917 9.93853 21.9824 9.89499 21.9644C9.85145 21.9463 9.81189 21.9199 9.77857 21.8866C9.74525 21.8532 9.71881 21.8137 9.70078 21.7701C9.68274 21.7266 9.67346 21.6799 9.67346 21.6328C9.67346 21.5376 9.71127 21.4464 9.77857 21.3791C9.84587 21.3118 9.93715 21.274 10.0323 21.274C10.1275 21.274 10.2188 21.3118 10.2861 21.3791C10.3534 21.4464 10.3912 21.5376 10.3912 21.6328Z" fill="#E0157B"/>
<path d="M6.00162 18.4026C5.99947 18.498 5.96034 18.5889 5.89247 18.656C5.82461 18.7231 5.73332 18.7613 5.63787 18.7624C5.54269 18.7624 5.45141 18.7246 5.38411 18.6573C5.31682 18.59 5.27901 18.4987 5.27901 18.4035C5.27901 18.3084 5.31682 18.2171 5.38411 18.1498C5.45141 18.0825 5.54269 18.0447 5.63787 18.0447C5.73326 18.0449 5.82476 18.0825 5.89275 18.1494C5.96075 18.2163 5.99983 18.3072 6.00162 18.4026Z" fill="#E0167C"/>
<defs>
<linearGradient id="paint0_linear_613_92" x1="14" y1="0" x2="14" y2="28" gradientUnits="userSpaceOnUse">
<stop stop-color="#1D2549"/>
<stop offset="1" stop-color="#0F1126"/>
</linearGradient>
</defs>
</svg>
