<?xml version="1.0" standalone="no"?>
<!DOCTYPE svg PUBLIC "-//W3C//DTD SVG 20010904//EN"
 "http://www.w3.org/TR/2001/REC-SVG-20010904/DTD/svg10.dtd">
<svg version="1.0" xmlns="http://www.w3.org/2000/svg"
 width="200.000000pt" height="200.000000pt" viewBox="0 0 200.000000 200.000000"
 preserveAspectRatio="xMidYMid meet">
<metadata>
Created by potrace 1.16, written by Peter Selinger 2001-2019
</metadata>
<g transform="translate(0.000000,200.000000) scale(0.100000,-0.100000)"
fill="#000000" stroke="none">
<path d="M930 1729 c-321 -47 -536 -357 -466 -671 22 -98 50 -123 117 -105 44
11 54 52 33 136 -52 217 99 440 327 482 164 30 344 -63 423 -218 108 -213 -1
-476 -231 -557 -36 -13 -262 -40 -269 -33 -2 1 17 92 42 202 24 109 44 206 44
215 0 32 -39 70 -71 70 -43 0 -66 -15 -78 -52 -5 -18 -49 -217 -97 -442 -79
-373 -86 -412 -73 -435 8 -14 29 -30 47 -35 54 -15 83 14 104 105 10 41 20 84
23 97 9 37 73 100 118 116 23 8 75 18 116 21 189 16 357 127 443 291 183 348
-27 759 -415 813 -43 6 -79 10 -80 10 -1 -1 -27 -5 -57 -10z"/>
<path d="M959 421 c-52 -53 -33 -131 37 -150 79 -22 142 47 110 122 -26 65
-97 78 -147 28z"/>
</g>
</svg>
