<svg width="24" height="20" viewBox="0 0 24 20" fill="none" xmlns="http://www.w3.org/2000/svg">
<path d="M23.2605 11.4205C24.1542 9.42409 19.7361 3.84632 15.5153 1.52251C12.8548 -0.277724 10.0826 -0.0304026 9.52109 0.760033C8.2889 2.49472 13.6012 3.96461 17.154 5.67986C16.3903 6.01155 15.6706 6.6068 15.2474 7.36804C13.9229 5.92203 11.0158 4.67681 7.60459 5.67986C5.30587 6.35579 3.39545 7.94932 2.65709 10.3562C2.47768 10.2764 2.27904 10.2321 2.07006 10.2321C1.27089 10.2321 0.623047 10.88 0.623047 11.6791C0.623047 12.4783 1.27089 13.1261 2.07006 13.1261C2.21818 13.1261 2.68134 13.0268 2.68134 13.0268L10.0826 13.0804C7.12265 17.776 4.78348 18.4624 4.78348 19.2759C4.78348 20.0894 7.02165 19.8689 7.86203 19.5657C11.885 18.1141 16.2059 13.5902 16.9474 12.2879C20.0611 12.6763 22.6778 12.7223 23.2605 11.4205Z" fill="url(#paint0_linear)"/>
<path fill-rule="evenodd" clip-rule="evenodd" d="M17.1537 5.68009C17.1539 5.68017 17.1541 5.68026 17.1543 5.68035C17.3189 5.61548 17.2923 5.37226 17.2471 5.18127C17.1431 4.74227 15.3499 2.97152 13.666 2.1784C11.3715 1.09769 9.68182 1.15337 9.43213 1.65146C9.89952 2.60942 12.0664 3.50883 14.3295 4.44818C15.295 4.84894 16.278 5.25697 17.1541 5.67991C17.1539 5.67997 17.1538 5.68003 17.1537 5.68009Z" fill="url(#paint1_linear)"/>
<path fill-rule="evenodd" clip-rule="evenodd" d="M14.2419 15.3216C13.7778 15.1442 13.2536 14.9815 12.6577 14.8339C13.2931 13.6969 13.4264 12.0136 12.8263 10.9494C11.9841 9.45587 10.9269 8.66092 8.47016 8.66092C7.11896 8.66092 3.48093 9.11605 3.41634 12.153C3.40957 12.4716 3.41617 12.7637 3.43924 13.0322L10.0826 13.0804C9.18695 14.5012 8.34816 15.5549 7.61382 16.3562C8.49549 16.5821 9.22308 16.7718 9.89107 16.9459C10.5249 17.1111 11.1051 17.2624 11.7123 17.4173C12.6283 16.75 13.4894 16.0223 14.2419 15.3216Z" fill="url(#paint2_linear)"/>
<path d="M2.56847 12.7202C2.83986 15.0272 4.15099 15.9313 6.83016 16.1989C9.50933 16.4665 11.0461 16.287 13.0922 16.4731C14.801 16.6286 16.3267 17.4994 16.8928 17.1985C17.4022 16.9276 17.1172 15.9492 16.4355 15.3215C15.552 14.5077 14.3291 13.942 12.1774 13.7412C12.6062 12.5671 12.486 10.9209 11.8201 10.0253C10.8571 8.73026 9.07972 8.14476 6.83016 8.40057C4.4799 8.66783 2.22789 9.82493 2.56847 12.7202Z" fill="url(#paint3_linear)"/>
<defs>
<linearGradient id="paint0_linear" x1="7.33693" y1="9.65258" x2="23.0681" y2="14.1136" gradientUnits="userSpaceOnUse">
<stop stop-color="#8797FF"/>
<stop offset="1" stop-color="#AAA8FF"/>
</linearGradient>
<linearGradient id="paint1_linear" x1="20.4191" y1="9.35352" x2="9.06844" y2="-2.02496" gradientUnits="userSpaceOnUse">
<stop stop-color="#3B22A0"/>
<stop offset="1" stop-color="#5156D8" stop-opacity="0"/>
</linearGradient>
<linearGradient id="paint2_linear" x1="14.5577" y1="15.7179" x2="3.65403" y2="9.44907" gradientUnits="userSpaceOnUse">
<stop stop-color="#3B1E8F"/>
<stop offset="1" stop-color="#6A6FFB" stop-opacity="0"/>
</linearGradient>
<linearGradient id="paint3_linear" x1="8.27612" y1="9.53521" x2="15.6462" y2="18.8996" gradientUnits="userSpaceOnUse">
<stop stop-color="#8898FF"/>
<stop offset="0.983895" stop-color="#5F47F1"/>
</linearGradient>
</defs>
</svg>
