<?xml version="1.0" standalone="no"?>
<!DOCTYPE svg PUBLIC "-//W3C//DTD SVG 20010904//EN"
 "http://www.w3.org/TR/2001/REC-SVG-20010904/DTD/svg10.dtd">
<svg version="1.0" xmlns="http://www.w3.org/2000/svg"
 width="189.000000pt" height="189.000000pt" viewBox="0 0 189.000000 189.000000"
 preserveAspectRatio="xMidYMid meet">
<metadata>
Created by potrace 1.16, written by Peter Selinger 2001-2019
</metadata>
<g transform="translate(0.000000,189.000000) scale(0.100000,-0.100000)"
fill="#3656d6" stroke="none">
<path d="M755 1785 c-230 -44 -424 -173 -554 -371 -74 -113 -94 -186 -89 -327
3 -101 6 -119 35 -180 59 -124 175 -213 333 -253 78 -20 276 -23 365 -5 125
25 266 81 324 128 l24 20 -49 27 -48 27 -54 -26 c-122 -60 -235 -85 -381 -85
-200 0 -339 68 -412 202 -33 60 -34 67 -34 168 0 97 2 110 31 170 132 278 466
456 770 410 251 -38 456 -187 571 -414 103 -204 100 -459 -7 -665 -106 -205
-281 -340 -507 -394 l-93 -22 0 -47 c0 -46 1 -48 28 -48 54 0 199 42 277 80
227 110 389 307 456 555 31 113 31 316 0 429 -117 436 -544 704 -986 621z"/>
<path d="M1356 1129 c-33 -26 -37 -88 -6 -119 48 -48 130 -9 130 62 0 41 -36
78 -75 78 -12 0 -34 -9 -49 -21z"/>
<path d="M1225 715 c-54 -47 -202 -119 -305 -149 -242 -69 -537 -57 -714 30
l-55 27 -28 -34 c-15 -18 -28 -38 -28 -43 0 -17 122 -74 210 -98 69 -18 107
-22 275 -22 129 -1 219 4 265 13 102 20 238 66 314 106 67 36 201 131 201 143
0 6 -86 63 -93 62 -1 -1 -20 -16 -42 -35z"/>
<path d="M1393 616 c-79 -96 -259 -203 -413 -246 -116 -32 -253 -50 -387 -50
l-123 0 0 -27 c0 -16 -3 -38 -6 -50 -5 -19 -1 -22 48 -28 66 -8 302 10 405 31
149 31 293 90 408 167 65 44 185 161 185 181 0 11 -68 56 -83 56 -3 0 -18 -15
-34 -34z"/>
</g>
</svg>
